<svg xmlns="http://www.w3.org/2000/svg" xmlns:xlink="http://www.w3.org/1999/xlink" width="179.095" height="186.53" viewBox="0 0 179.095 186.53"><defs><style>.a{fill:#fff;}.b{fill:#662d91;}.c{fill:#fbb040;}.d{fill:url(#a);}.e{fill:url(#b);}.f{fill:url(#c);}</style><linearGradient id="a" x1="0.115" y1="0.019" x2="0.913" y2="1.015" gradientUnits="objectBoundingBox"><stop offset="0" stop-color="#662d91"/><stop offset="1" stop-color="#fbb040"/></linearGradient><linearGradient id="b" x1="1.117" y1="0.096" x2="-0.928" y2="1.29" gradientUnits="objectBoundingBox"><stop offset="0" stop-color="#ffd385"/><stop offset="0.3" stop-color="#fbb040"/></linearGradient><linearGradient id="c" x1="-0.425" y1="-0.046" x2="2.387" y2="1.484" gradientUnits="objectBoundingBox"><stop offset="0.05" stop-color="#8247bf"/><stop offset="0.3" stop-color="#662d91"/></linearGradient></defs><g transform="translate(0.018)"><g transform="translate(-0.018 0)"><path class="a" d="M56.646,365.369a10,10,0,0,1,2.567-7.086,8.772,8.772,0,0,1,6.743-2.764,10.469,10.469,0,0,1,2.581.3,7.594,7.594,0,0,1,1.99.765,6.322,6.322,0,0,1,1.37,1.037,4.191,4.191,0,0,1,.826,1.136,2.459,2.459,0,0,1,.253,1.023,2.008,2.008,0,0,1-.127.718,1.755,1.755,0,0,1-.338.558,3.6,3.6,0,0,1-.469.413,2.041,2.041,0,0,1-.5.286l-.469.169a.887.887,0,0,1-.347.075.356.356,0,0,1-.145-.023A4.838,4.838,0,0,0,68.7,360.1a5.2,5.2,0,0,0-2.59-.676,4.913,4.913,0,0,0-3.815,1.638,6.9,6.9,0,0,0,0,8.583,4.937,4.937,0,0,0,3.825,1.671,5.2,5.2,0,0,0,2.816-.755,4.223,4.223,0,0,0,1.736-2.1,1.409,1.409,0,0,1,.282,0,1.6,1.6,0,0,1,.615.178,6.316,6.316,0,0,1,.723.389,1.976,1.976,0,0,1,.863,1.624,2.708,2.708,0,0,1-.272,1.093,4.43,4.43,0,0,1-.854,1.211,6.694,6.694,0,0,1-1.408,1.122,7.889,7.889,0,0,1-2.069.821,10.546,10.546,0,0,1-2.67.319,9.386,9.386,0,0,1-4.838-1.239,8.447,8.447,0,0,1-3.285-3.487A11.047,11.047,0,0,1,56.646,365.369Z" transform="translate(-30.054 -188.686)"/><path class="a" d="M110.3,373.289V358.057q0-1.957,1.779-1.957h.563q1.83,0,1.83,1.957v15.232q0,1.957-1.83,1.957h-.563Q110.3,375.246,110.3,373.289Z" transform="translate(-58.532 -188.994)"/><path class="a" d="M139.266,372.885V358.736a2.44,2.44,0,0,1,.615-1.755,2.126,2.126,0,0,1,1.6-.643h4.632a10.072,10.072,0,0,1,7.231,2.5,9.041,9.041,0,0,1,2.628,6.884,9.166,9.166,0,0,1-2.689,6.973,10.188,10.188,0,0,1-7.311,2.562h-4.383a2.234,2.234,0,0,1-1.647-.69,2.346,2.346,0,0,1-.676-1.68Zm4.172-1.314h2.529a5.345,5.345,0,0,0,5.833-5.824,5.29,5.29,0,0,0-5.763-5.739h-2.586Z" transform="translate(-73.903 -189.12)"/><path class="a" d="M188.8,373.968l6.237-16.692a1.516,1.516,0,0,1,.779-.939,4.293,4.293,0,0,1,1.933-.319,4.143,4.143,0,0,1,1.9.314,1.624,1.624,0,0,1,.774.967l6.377,16.664a.287.287,0,0,1,0,.07.7.7,0,0,1-.244.427,2.845,2.845,0,0,1-.878.577,2.689,2.689,0,0,1-1.15.267q-1.657,0-2.4-2.041l-1.1-2.985h-6.673l-1.1,3.041c-.446,1.323-1.211,1.985-2.285,1.985a2.722,2.722,0,0,1-1.539-.5c-.436-.286-.648-.526-.648-.727a.178.178,0,0,1,.014-.108Zm6.373-6.926H200.2l-2.511-6.865Z" transform="translate(-100.186 -188.946)"/><path class="a" d="M243.756,372.885V358.736a2.44,2.44,0,0,1,.615-1.755,2.112,2.112,0,0,1,1.6-.643H250.6a10.072,10.072,0,0,1,7.231,2.5,9.041,9.041,0,0,1,2.628,6.884,9.166,9.166,0,0,1-2.689,6.973,10.188,10.188,0,0,1-7.311,2.562h-4.383a2.224,2.224,0,0,1-1.647-.69A2.346,2.346,0,0,1,243.756,372.885Zm4.172-1.314h2.511a5.345,5.345,0,0,0,5.833-5.824,5.29,5.29,0,0,0-5.763-5.739h-2.586Z" transform="translate(-129.359 -189.12)"/><path class="a" d="M297.4,372.88V358.732a2.539,2.539,0,0,1,.573-1.76,2.018,2.018,0,0,1,1.591-.638H309.76a1.966,1.966,0,0,1,1.431.469,1.769,1.769,0,0,1,.469,1.337v.145c0,1.211-.638,1.811-1.915,1.811h-8.165v3.829h5.955c1.276,0,1.915.54,1.915,1.628v.113q0,1.708-1.915,1.713h-5.955v4.1h8.3q1.915,0,1.915,1.713v.174a1.7,1.7,0,0,1-1.915,1.877H299.558a2.055,2.055,0,0,1-1.591-.619,2.5,2.5,0,0,1-.563-1.741Z" transform="translate(-157.832 -189.115)"/><path class="a" d="M319.753,234.713c1.854-2.848,4.486-3.82,7.593-3.867,2.5-.033,3.421.784,3.435,3.285.023,5.359,0,10.718,0,16.072v22.238c0,3.05-.892,3.871-3.956,3.7-3.937-.216-6.715-2.032-8.053-5.992h0a18.72,18.72,0,0,1-19.146,5.631c-7.048-1.854-11.23-6.57-12.839-13.454-2.008-8.55-.939-16.781,4.284-24.041,6.631-9.221,17.142-9.559,26.227-4.984C318.073,233.713,318.81,234.178,319.753,234.713Zm-1.666,13.942c.033-4.331-.239-4.449-4.852-5.519-.244-.056-.389-.084-.634-.122-6.537-1.056-12.257.821-13.581,7.579a24.757,24.757,0,0,0-.211,7.039,6.931,6.931,0,0,0,4.871,6.044c5.129,1.905,10.526-.131,12.576-5.2a32.812,32.812,0,0,0,1.722-7.78C318.008,250.349,318.087,248.833,318.087,248.655Z" transform="translate(-151.696 -122.296)"/><path class="a" d="M99.62,253.535a23.04,23.04,0,1,1,23.125,23,23.038,23.038,0,0,1-23.125-23Zm33.459-.127a10.444,10.444,0,1,0-10.394,10.864C128.625,264.272,133.116,259.555,133.078,253.408Z" transform="translate(-52.863 -122.281)"/><path class="a" d="M205.471,230.952h-4.256c-2.614-.028-3.285-.69-3.285-3.365v-5.8c.023-2.215.793-2.98,3.05-3.036,1.309-.033,2.614-.028,3.923-.052h.324a57.589,57.589,0,0,1,1.356-5.7,8.315,8.315,0,0,1,9.343-5.162,2.556,2.556,0,0,1,2.163,2.816c-.028,2.609,0,5.223,0,8.1h11.262c3.571,0,4.275.765,4.012,4.308-.291,4.528-3.491,7.461-8.653,7.757-2.1.131-4.364,0-6.57,0V248c.023,3.285,1,4.28,4.308,4.106a52.5,52.5,0,0,0,6.818-.938c3.027-.554,4.28.239,4.871,3.285.352,1.83.718,3.66,1.084,5.49a2.26,2.26,0,0,1-1.619,2.938c-5.265,1.478-10.615,2.248-16.03,1.009a14.59,14.59,0,0,1-11.732-13.355c-.469-5.692-.282-11.441-.385-17.166C205.471,232.646,205.471,231.918,205.471,230.952Z" transform="translate(-105.04 -110.219)"/><path class="a" d="M22.708,261.29c1.835-6.321,3.426-12.2,5.27-17.978a33.886,33.886,0,0,1,3.285-7.274c2.421-3.961,8.447-6.129,12.839-4.918,1.624.446,1.455,1.591,1,2.816q-3.351,9.1-6.687,18.2-3.787,10.324-7.569,20.648c-1.037,2.816-2.121,3.566-5.162,3.571-2.177,0-4.359-.038-6.532,0a4.08,4.08,0,0,1-4.3-2.891Q7.55,253.721.314,233.937c-.793-2.112-.192-2.853,2.088-2.914,7.565-.211,11.614,2.346,14.1,9.625,2.135,6.222,3.778,12.614,5.631,18.93C22.267,259.981,22.407,260.38,22.708,261.29Z" transform="translate(0.018 -122.486)"/><path class="b" d="M108.187,73.295A37.907,37.907,0,0,1,83.846,37.9h0a37.906,37.906,0,0,1,24.337-35.39A37.738,37.738,0,0,0,94.62,0H51.105A15.955,15.955,0,0,0,35.15,15.955V59.888A15.955,15.955,0,0,0,51.105,75.843h2.074c3.754,7.325,10.483,13.871,22.581,14.139a37.161,37.161,0,0,1-7.832-14.139H94.62a37.739,37.739,0,0,0,13.566-2.548Z" transform="translate(-18.647 0)"/><path class="c" d="M190.79,156.17Z" transform="translate(-101.25 -82.885)"/><path class="c" d="M247.931,0h-43.52A37.832,37.832,0,0,0,190.85,2.511v.023A37.912,37.912,0,0,1,215.13,37.9h0A37.906,37.906,0,0,1,190.854,73.27l0,.025a37.734,37.734,0,0,0,13.562,2.511h26.7a37.161,37.161,0,0,1-7.832,14.139c12.1-.267,18.832-6.814,22.581-14.139h2.074A15.955,15.955,0,0,0,263.887,59.85v-43.9A15.955,15.955,0,0,0,247.931,0Z" transform="translate(-101.282 0)"/><path class="d" d="M163.256,5.373V5.35H163.2v.023A37.907,37.907,0,0,0,138.92,40.742h0A37.9,37.9,0,0,0,163.2,76.111l0,.023h.056v-.023a37.9,37.9,0,0,0,24.28-35.369h0A37.9,37.9,0,0,0,163.257,5.374Z" transform="translate(-73.721 -2.839)"/><path class="e" d="M256.14,7.79H216.464a34,34,0,0,0-4.341.282A42.05,42.05,0,0,1,229.66,42.037h0a42.078,42.078,0,0,1-18.25,34.486,34.541,34.541,0,0,0,5.054.375h2.956v-.028h37.935a14.547,14.547,0,0,0,13.313-14.477V22.318A14.547,14.547,0,0,0,256.14,7.79Z" transform="translate(-112.194 -4.134)"/><path class="f" d="M84.743,42.037h0A42.037,42.037,0,0,1,102.28,8.072a33.928,33.928,0,0,0-4.336-.282H58.267A14.547,14.547,0,0,0,43.72,22.337V62.37a14.547,14.547,0,0,0,13.332,14.5H95v.052h2.956a34.424,34.424,0,0,0,5.049-.375A42.136,42.136,0,0,1,84.743,42.037Z" transform="translate(-23.195 -4.134)"/></g></g></svg>