<svg xmlns="http://www.w3.org/2000/svg" width="179.095" height="186.53"><defs><linearGradient id="a" x1=".115" x2=".913" y1=".019" y2="1.015" gradientUnits="objectBoundingBox"><stop offset="0" stop-color="#662d91"/><stop offset="1" stop-color="#fbb040"/></linearGradient><linearGradient id="b" x1="1.117" x2="-.928" y1=".096" y2="1.29" gradientUnits="objectBoundingBox"><stop offset="0" stop-color="#ffd385"/><stop offset=".3" stop-color="#fbb040"/></linearGradient><linearGradient id="c" x1="-.425" x2="2.387" y1="-.046" y2="1.484" gradientUnits="objectBoundingBox"><stop offset=".05" stop-color="#8247bf"/><stop offset=".3" stop-color="#662d91"/></linearGradient><style>.a{fill:#fff}.c{fill:#fbb040}</style></defs><path d="M26.6 176.68a10 10 0 012.56-7.08 8.77 8.77 0 016.74-2.77 10.47 10.47 0 012.58.3 7.6 7.6 0 012 .77 6.32 6.32 0 011.36 1.03 4.2 4.2 0 01.83 1.14 2.46 2.46 0 01.25 1.02 2 2 0 01-.12.72 1.75 1.75 0 01-.34.56 3.6 3.6 0 01-.47.41 2.04 2.04 0 01-.5.29l-.47.17a.89.89 0 01-.35.07.36.36 0 01-.14-.02 4.84 4.84 0 00-1.88-1.88 5.2 5.2 0 00-2.6-.67 4.91 4.91 0 00-3.8 1.64 6.9 6.9 0 000 8.58 4.94 4.94 0 003.82 1.67 5.2 5.2 0 002.81-.75 4.22 4.22 0 001.74-2.1 1.4 1.4 0 01.28 0 1.6 1.6 0 01.61.17 6.32 6.32 0 01.73.4 1.98 1.98 0 01.86 1.62 2.7 2.7 0 01-.27 1.09 4.43 4.43 0 01-.86 1.21 6.7 6.7 0 01-1.4 1.12 7.89 7.89 0 01-2.07.82 10.55 10.55 0 01-2.67.32 9.39 9.39 0 01-4.84-1.24 8.45 8.45 0 01-3.29-3.48 11.05 11.05 0 01-1.1-5.13zM51.77 184.3v-15.24q0-1.95 1.78-1.95h.56q1.83 0 1.83 1.95v15.24q0 1.95-1.83 1.95h-.56q-1.78 0-1.78-1.95zM65.36 183.76v-14.14a2.44 2.44 0 01.62-1.76 2.13 2.13 0 011.6-.64h4.63a10.07 10.07 0 017.23 2.5 9.04 9.04 0 012.63 6.88 9.17 9.17 0 01-2.69 6.97 10.19 10.19 0 01-7.31 2.57h-4.38a2.23 2.23 0 01-1.65-.7 2.35 2.35 0 01-.68-1.67zm4.17-1.3h2.53a5.34 5.34 0 005.84-5.83 5.29 5.29 0 00-5.77-5.74h-2.58zM88.61 185.02l6.24-16.69a1.52 1.52 0 01.78-.94 4.3 4.3 0 011.93-.32 4.14 4.14 0 011.9.32 1.62 1.62 0 01.78.96l6.37 16.67a.29.29 0 010 .07.7.7 0 01-.24.42 2.85 2.85 0 01-.88.58 2.69 2.69 0 01-1.15.27q-1.66 0-2.4-2.04l-1.1-2.99h-6.67l-1.1 3.04c-.45 1.33-1.21 1.99-2.29 1.99a2.72 2.72 0 01-1.53-.5c-.44-.29-.65-.53-.65-.73a.18.18 0 01.01-.1zM95 178.1H100l-2.5-6.87zM114.4 183.76v-14.14a2.44 2.44 0 01.61-1.76 2.11 2.11 0 011.6-.64h4.63a10.07 10.07 0 017.23 2.5 9.04 9.04 0 012.63 6.88 9.17 9.17 0 01-2.69 6.97 10.19 10.19 0 01-7.31 2.57h-4.38a2.22 2.22 0 01-1.65-.7 2.35 2.35 0 01-.67-1.68zm4.17-1.3h2.51a5.34 5.34 0 005.83-5.83 5.29 5.29 0 00-5.76-5.74h-2.59zM139.57 183.76v-14.14a2.54 2.54 0 01.57-1.76 2.02 2.02 0 011.6-.64h10.19a1.97 1.97 0 011.43.47 1.77 1.77 0 01.47 1.34v.14c0 1.21-.64 1.81-1.92 1.81h-8.16v3.83h5.95c1.28 0 1.92.54 1.92 1.63v.11q0 1.7-1.92 1.71h-5.95v4.1h8.3q1.91 0 1.91 1.72v.17a1.7 1.7 0 01-1.91 1.88h-10.32a2.06 2.06 0 01-1.6-.62 2.5 2.5 0 01-.56-1.74zM168.06 112.42c1.85-2.85 4.48-3.82 7.59-3.87 2.5-.03 3.42.78 3.43 3.28.03 5.36 0 10.72 0 16.08v22.23c0 3.05-.89 3.88-3.95 3.7-3.94-.21-6.72-2.03-8.05-5.99a18.72 18.72 0 01-19.15 5.63c-7.05-1.85-11.23-6.57-12.84-13.45-2-8.55-.94-16.78 4.29-24.04 6.63-9.22 17.14-9.56 26.22-4.99.78.42 1.51.88 2.46 1.42zm-1.67 13.94c.03-4.33-.24-4.45-4.85-5.52a7.78 7.78 0 00-.64-.12c-6.53-1.06-12.25.82-13.58 7.58a24.76 24.76 0 00-.2 7.04 6.93 6.93 0 004.86 6.04c5.13 1.9 10.53-.13 12.58-5.2a32.81 32.81 0 001.72-7.78c.03-.35.11-1.86.11-2.04zM46.76 131.25a23.04 23.04 0 1123.12 23 23.04 23.04 0 01-23.12-23zm33.46-.12a10.44 10.44 0 10-10.4 10.86c5.94 0 10.43-4.72 10.4-10.86zM100.43 120.73h-4.26c-2.6-.02-3.28-.69-3.28-3.36v-5.8c.02-2.22.8-2.98 3.05-3.04 1.3-.03 2.61-.03 3.92-.05h.33a57.59 57.59 0 011.35-5.7 8.31 8.31 0 019.35-5.16 2.56 2.56 0 012.16 2.81c-.03 2.61 0 5.23 0 8.1h11.26c3.57 0 4.28.77 4.01 4.31-.29 4.53-3.49 7.46-8.65 7.76-2.1.13-4.36 0-6.57 0v17.18c.02 3.29 1 4.28 4.3 4.1a52.5 52.5 0 006.83-.93c3.02-.55 4.28.24 4.87 3.28a760 760 0 001.08 5.5 2.26 2.26 0 01-1.62 2.93c-5.26 1.48-10.61 2.25-16.03 1.01a14.59 14.59 0 01-11.73-13.35c-.47-5.7-.28-11.44-.39-17.17.02-.72.02-1.45.02-2.42zM22.73 138.8c1.83-6.32 3.42-12.2 5.27-17.97a33.89 33.89 0 013.28-7.28c2.42-3.96 8.45-6.13 12.84-4.92 1.62.45 1.46 1.6 1 2.82q-3.35 9.1-6.69 18.2-3.78 10.32-7.57 20.65c-1.03 2.81-2.12 3.56-5.16 3.57-2.17 0-4.36-.04-6.53 0a4.08 4.08 0 01-4.3-2.9Q7.57 131.25.33 111.46c-.8-2.11-.19-2.85 2.09-2.91 7.57-.21 11.61 2.34 14.1 9.62 2.13 6.22 3.78 12.62 5.63 18.93.14.4.28.8.58 1.71z" class="a"/><path fill="#662d91" d="M89.54 73.3A37.9 37.9 0 0165.2 37.9 37.9 37.9 0 0189.54 2.51 37.74 37.74 0 0075.97 0H32.46A15.96 15.96 0 0016.5 15.96v43.93a15.96 15.96 0 0015.96 15.95h2.07c3.76 7.33 10.48 13.87 22.58 14.14a37.16 37.16 0 01-7.83-14.14h26.7a37.74 37.74 0 0013.56-2.54z"/><path d="M146.65 0h-43.52a37.83 37.83 0 00-13.56 2.51v.02a37.91 37.91 0 0124.28 35.37 37.9 37.9 0 01-24.28 35.37v.03a37.73 37.73 0 0013.56 2.5h26.7A37.16 37.16 0 01122 89.95c12.1-.26 18.83-6.8 22.58-14.13h2.08a15.96 15.96 0 0015.94-15.96v-43.9A15.96 15.96 0 00146.66 0z" class="c"/><path fill="url(#a)" d="M163.26 5.37v-.02h-.06v.02a37.9 37.9 0 00-24.28 35.37 37.9 37.9 0 0024.28 35.37v.02h.06v-.02a37.9 37.9 0 0024.28-35.37 37.9 37.9 0 00-24.28-35.37z" transform="translate(-73.721 -2.839)"/><path fill="url(#b)" d="M256.14 7.79h-39.68a34 34 0 00-4.34.28 42.05 42.05 0 0117.54 33.97 42.08 42.08 0 01-18.25 34.48 34.54 34.54 0 005.05.38h2.96v-.03h37.94a14.55 14.55 0 0013.3-14.48V22.32a14.55 14.55 0 00-14.52-14.53z" transform="translate(-112.194 -4.134)"/><path fill="url(#c)" d="M84.74 42.04a42.04 42.04 0 0117.54-33.97 33.93 33.93 0 00-4.34-.28H58.27a14.55 14.55 0 00-14.55 14.55v40.03a14.55 14.55 0 0013.33 14.5H95v.05h2.96a34.42 34.42 0 005.05-.37 42.14 42.14 0 01-18.27-34.51z" transform="translate(-23.195 -4.134)"/></svg>