<svg xmlns="http://www.w3.org/2000/svg" xmlns:xlink="http://www.w3.org/1999/xlink" viewBox="0 0 963.79 256.46"><defs><style>.cls-1{fill:#662d91;}.cls-2{fill:#fbb040;}.cls-3{fill:url(#Gradiente_sem_nome_5);}.cls-4{fill:url(#Gradiente_sem_nome_37);}.cls-5{fill:url(#Gradiente_sem_nome_46);}.cls-6{fill:url(#Gradiente_sem_nome_5-2);}.cls-7{fill:url(#Gradiente_sem_nome_5-3);}.cls-8{fill:url(#Gradiente_sem_nome_5-4);}.cls-9{fill:url(#Gradiente_sem_nome_5-5);}.cls-10{fill:url(#Gradiente_sem_nome_5-6);}.cls-11{fill:url(#Gradiente_sem_nome_5-7);}.cls-12{fill:#161616;}</style><linearGradient id="Gradiente_sem_nome_5" x1="153.75" y1="12.68" x2="263.58" y2="212.33" gradientUnits="userSpaceOnUse"><stop offset="0" stop-color="#662d91"/><stop offset="1" stop-color="#fbb040"/></linearGradient><linearGradient id="Gradiente_sem_nome_37" x1="421.7" y1="30.81" x2="78.54" y2="264.5" gradientUnits="userSpaceOnUse"><stop offset="0" stop-color="#ffd385"/><stop offset="0.3" stop-color="#fbb040"/></linearGradient><linearGradient id="Gradiente_sem_nome_46" x1="-60.1" y1="3.06" x2="412.18" y2="302.72" gradientUnits="userSpaceOnUse"><stop offset="0.05" stop-color="#8247bf"/><stop offset="0.3" stop-color="#662d91"/></linearGradient><linearGradient id="Gradiente_sem_nome_5-2" x1="516.32" y1="225.82" x2="1100.35" y2="222.65" xlink:href="#Gradiente_sem_nome_5"/><linearGradient id="Gradiente_sem_nome_5-3" x1="516.31" y1="226.1" x2="1100.34" y2="222.93" xlink:href="#Gradiente_sem_nome_5"/><linearGradient id="Gradiente_sem_nome_5-4" x1="516.33" y1="226.35" x2="1100.36" y2="223.18" xlink:href="#Gradiente_sem_nome_5"/><linearGradient id="Gradiente_sem_nome_5-5" x1="516.33" y1="226.87" x2="1100.36" y2="223.7" xlink:href="#Gradiente_sem_nome_5"/><linearGradient id="Gradiente_sem_nome_5-6" x1="516.33" y1="227.11" x2="1100.36" y2="223.94" xlink:href="#Gradiente_sem_nome_5"/><linearGradient id="Gradiente_sem_nome_5-7" x1="516.33" y1="227.54" x2="1100.36" y2="224.37" xlink:href="#Gradiente_sem_nome_5"/></defs><g id="Camada_2" data-name="Camada 2"><g id="Camada_1-2" data-name="Camada 1"><path class="cls-1" d="M206.84,209.3A107.39,107.39,0,0,1,137.9,109h0A107.38,107.38,0,0,1,206.84,8.78a106.93,106.93,0,0,0-38.42-7.11H45.15A45.14,45.14,0,0,0,0,46.81V171.26a45.15,45.15,0,0,0,45.15,45.15H51c10.62,20.74,29.69,39.29,64,40-12.29-14.7-18.75-27.64-22.18-40h75.61A106.93,106.93,0,0,0,206.84,209.3Z"/><path class="cls-2" d="M206.85,209.26h0Z"/><path class="cls-2" d="M368.63,1.67H245.35a107,107,0,0,0-38.42,7.11v.07A107.37,107.37,0,0,1,275.71,109h0a107.38,107.38,0,0,1-68.78,100.19v.07a107,107,0,0,0,38.42,7.11H321c-3.43,12.41-9.89,25.35-22.19,40,34.28-.76,53.35-19.31,64-40h5.88a45.16,45.16,0,0,0,45.15-45.15V46.81A45.15,45.15,0,0,0,368.63,1.67Z"/><path class="cls-3" d="M206.84,8.85V8.78l-.08,0-.09,0v.07A107.36,107.36,0,0,0,137.9,109h0a107.37,107.37,0,0,0,68.77,100.19v.07l.09,0,.08,0v-.07A107.38,107.38,0,0,0,275.62,109h0A107.37,107.37,0,0,0,206.84,8.85Z"/><path class="cls-4" d="M361,12H248.58a96,96,0,0,0-12.3.8C266.45,34.87,286,69.75,286,109h0c0,40.15-20.36,75.73-51.68,97.69a97.87,97.87,0,0,0,14.31,1.07H257v-.16H364.42a41.14,41.14,0,0,0,37.71-41V53.18A41.16,41.16,0,0,0,361,12Z"/><path class="cls-5" d="M127.56,109h0c0-39.29,19.5-74.17,49.68-96.23A97.83,97.83,0,0,0,165,12H52.56A41.16,41.16,0,0,0,11.4,53.18V166.64a41.15,41.15,0,0,0,37.71,41H156.58v.16H165a97.73,97.73,0,0,0,14.3-1.07C147.92,184.77,127.56,149.2,127.56,109Z"/><path class="cls-6" d="M529.57,225.63q0-12.31,7.31-20.18t19.19-7.87a30.08,30.08,0,0,1,7.36.86,21.59,21.59,0,0,1,5.66,2.17,18.26,18.26,0,0,1,3.91,3,12.21,12.21,0,0,1,2.35,3.23,7,7,0,0,1,.72,2.91,5.57,5.57,0,0,1-.37,2,4.9,4.9,0,0,1-1,1.58,9.9,9.9,0,0,1-1.31,1.18,5.86,5.86,0,0,1-1.43.82c-.48.17-.92.34-1.34.48a2.82,2.82,0,0,1-1,.21,1.53,1.53,0,0,1-.41-.06,13.74,13.74,0,0,0-5.33-5.39,14.71,14.71,0,0,0-7.38-1.93,14,14,0,0,0-10.86,4.67q-4.23,4.68-4.23,12.2t4.29,12.23a14,14,0,0,0,10.88,4.76,14.85,14.85,0,0,0,8-2.15,12,12,0,0,0,4.94-6,3.9,3.9,0,0,1,.81,0,4.59,4.59,0,0,1,1.74.51,18.6,18.6,0,0,1,2.06,1.11,5.46,5.46,0,0,1,1.73,1.88,5.34,5.34,0,0,1,.72,2.74,7.6,7.6,0,0,1-.76,3.11,13,13,0,0,1-2.43,3.45,19.09,19.09,0,0,1-4,3.19,22.09,22.09,0,0,1-5.88,2.34,30.29,30.29,0,0,1-7.61.92,26.65,26.65,0,0,1-13.78-3.54,24,24,0,0,1-9.29-9.92A31.31,31.31,0,0,1,529.57,225.63Z"/><path class="cls-7" d="M601.25,247.3V203.92q0-5.56,5.06-5.57h1.61c3.48,0,5.21,1.86,5.21,5.57V247.3c0,3.71-1.73,5.56-5.21,5.56h-1.61Q601.26,252.86,601.25,247.3Z"/><path class="cls-8" d="M640,245.79V205.51a6.91,6.91,0,0,1,1.75-5,6,6,0,0,1,4.55-1.83h13.19q13.11,0,20.59,7.11t7.49,19.6q0,12.56-7.66,19.85t-20.81,7.3H646.57a6.33,6.33,0,0,1-4.68-2A6.58,6.58,0,0,1,640,245.79Zm11.88-3.74h7.21q7.79,0,12.19-4.37t4.4-12.21q0-7.68-4.38-12t-12.06-4.31h-7.36Z"/><path class="cls-9" d="M706.16,249.37l17.76-47.52a4.31,4.31,0,0,1,2.22-2.74,12.27,12.27,0,0,1,5.51-.92,11.82,11.82,0,0,1,5.41.9,4.56,4.56,0,0,1,2.19,2.76l18.16,47.44a.4.4,0,0,1,0,.2,2,2,0,0,1-.71,1.22,8,8,0,0,1-2.49,1.65,7.72,7.72,0,0,1-3.27.75q-4.71,0-6.82-5.81L741,238.8H722l-3.14,8.66q-1.92,5.64-6.51,5.65a7.84,7.84,0,0,1-4.39-1.42c-1.23-.82-1.84-1.51-1.84-2.08A.67.67,0,0,1,706.16,249.37Zm18.15-19.72h14.32l-7.14-19.55Z"/><path class="cls-10" d="M779.57,245.79V205.51a6.91,6.91,0,0,1,1.75-5,6,6,0,0,1,4.55-1.83h13.19q13.11,0,20.59,7.11t7.49,19.6q0,12.56-7.66,19.85t-20.81,7.3H786.18a6.32,6.32,0,0,1-4.68-2A6.58,6.58,0,0,1,779.57,245.79Zm11.88-3.74h7.2q7.8,0,12.2-4.37t4.4-12.21q0-7.68-4.38-12t-12.06-4.31h-7.36Z"/><path class="cls-11" d="M851.26,245.79V205.51a7.25,7.25,0,0,1,1.62-5,5.78,5.78,0,0,1,4.53-1.81h29a5.63,5.63,0,0,1,4.08,1.34,5.09,5.09,0,0,1,1.37,3.82v.41c0,3.44-1.81,5.16-5.45,5.16H863.14V220.3h17q5.45,0,5.45,4.65v.31c0,3.26-1.82,4.88-5.45,4.88h-17v11.67h23.68c3.64,0,5.45,1.62,5.45,4.87v.49a4.84,4.84,0,0,1-5.45,5.37H857.41a5.86,5.86,0,0,1-4.53-1.77A7.11,7.11,0,0,1,851.26,245.79Z"/><path class="cls-12" d="M932.36,42.65c5.28-8.11,12.77-10.88,21.61-11,7.12-.1,9.75,2.22,9.78,9.38.07,15.26,0,30.51,0,45.76q0,31.66,0,63.32c0,8.69-2.55,11-11.27,10.54-11.2-.62-19.12-5.78-22.93-17.06h0c-14.36,15.85-34.44,21.3-54.51,16.07-19.87-5.17-32-18.75-36.56-38.3-5.71-24.34-2.66-47.78,12.21-68.46,18.88-26.25,48.8-27.21,74.67-14.19C927.58,39.81,929.67,41.12,932.36,42.65Zm-4.74,39.69c.08-12.33-.69-12.66-13.82-15.7-.69-.16-1.11-.25-1.8-.36-18.63-3-34.91,2.29-38.67,21.58a70,70,0,0,0-.61,20c.81,8.4,5.85,14.22,13.88,17.21,14.6,5.42,30-.38,35.81-14.81,2.75-6.79,4.51-17.64,4.89-22.15C927.38,87.17,927.61,82.85,927.62,82.34Z"/><path class="cls-12" d="M587,96.28a65.6,65.6,0,0,1,131.19-.53c.36,36-29.17,65.83-65.36,66A65.65,65.65,0,0,1,587,96.28Zm95.26-.36c-.08-17.38-13.3-30.81-30-30.54S622.83,78.93,622.8,96.09c0,17.42,12.92,30.74,29.84,30.72S682.34,113.42,682.25,95.92Z"/><path class="cls-12" d="M739.85,66.32c-4.42,0-8.27,0-12.12,0-7.45-.07-9.28-2-9.31-9.58,0-5.5,0-11,0-16.49.06-6.32,2.25-8.49,8.69-8.65,3.72-.09,7.44-.09,11.16-.16l.92,0c1.23-5.32,2.11-11.09,3.87-16.23,3.61-10.48,15.78-17,26.6-14.72,4.21.9,6.2,3.69,6.16,8-.08,7.44,0,14.87,0,23.07,0,0,27.14,0,32.11,0,10.17,0,12.18,2.17,11.43,12.26-1,12.91-10.13,21.25-24.79,22.16-6,.36-12.43.06-18.69.06,0,0,0,2.7,0,3.7,0,15.07-.06,30.15.06,45.22.08,9.33,2.85,12.19,12.27,11.7A150.54,150.54,0,0,0,807.57,124c8.63-1.58,12.19.67,13.87,9.29q1.51,7.83,3.09,15.64c.81,4.08-.59,7.24-4.61,8.36-15,4.21-30.22,6.4-45.65,2.88-18.72-4.28-31.69-18.38-33.33-38-1.35-16.21-.8-32.58-1.09-48.88C739.82,71.15,739.85,69.07,739.85,66.32Z"/><path class="cls-12" d="M518.56,117.77c5.22-18,9.76-34.7,15-51.18a95.65,95.65,0,0,1,9.3-20.71c6.89-11.27,24-17.44,36.55-14,4.62,1.27,4.14,4.53,2.85,8q-9.54,25.9-19,51.83-10.79,29.4-21.55,58.82c-2.95,8-6,10.15-14.68,10.16-6.2,0-12.4-.1-18.6,0s-10.18-2.61-12.25-8.24Q475.42,96.24,454.8,39.9c-2.21-6.06-.54-8.13,5.94-8.31C482.28,31,493.81,38.28,500.9,59,507,76.72,511.66,94.92,517,112.9,517.3,114.05,517.71,115.18,518.56,117.77Z"/></g></g></svg>