<svg xmlns="http://www.w3.org/2000/svg" width="122" height="42.076" viewBox="0 0 122 42.076"><defs><style>.a{fill:#fff;}</style></defs><g transform="translate(0 0)"><path class="a" d="M147.781,41.74h-4.956c-.036,0-.354,0-.354.745s.318.745.354.745h4.956c.036,0,.354,0,.354-.745S147.817,41.74,147.781,41.74Z" transform="translate(-56.883 -16.665)"/><path class="a" d="M157.809,35.587a4.367,4.367,0,0,0-4.572,4.554V41.15a4.4,4.4,0,0,0,4.746,4.554c2.313,0,4.241-1.412,4.3-3.136a.138.138,0,0,0-.048-.126q-.162-.18-.793-.18c-.757,0-.817.228-.817.3,0,.823-1.063,1.712-2.643,1.712a2.639,2.639,0,0,1-2.89-2.817V41.2h6.41c.745,0,.787-.282.787-.342V40.14a4.379,4.379,0,0,0-4.481-4.554Zm2.829,4.331h-5.545a2.667,2.667,0,0,1,2.805-2.841,2.762,2.762,0,0,1,2.739,2.841Z" transform="translate(-61.18 -14.206)"/><path class="a" d="M175.652,35.65c-4.061,0-4.53.39-4.572.439h0v9.245c0,.06.048.354.919.354s.937-.294.937-.354V37.14h2.739a2.115,2.115,0,0,1,2.253,2.139v6.055c0,.06.048.354.919.354s.937-.294.937-.354V39.278A3.793,3.793,0,0,0,175.652,35.65Z" transform="translate(-68.306 -14.234)"/><path class="a" d="M196.422,28.25c-.871,0-.913.294-.913.354V32.81c-.661-.036-1.562-.054-2.757-.054a3.742,3.742,0,0,0-4.091,3.664v2.667a3.753,3.753,0,0,0,4.091,3.664c4.049,0,4.53-.39,4.572-.433h0V28.6C197.341,28.544,197.275,28.25,196.422,28.25Zm-3.671,13a2.145,2.145,0,0,1-2.259-2.181V36.4a2.139,2.139,0,0,1,2.259-2.175h2.757V41.25Z" transform="translate(-75.325 -11.279)"/><path class="a" d="M79,29.45H71.361c-.913,0-.961.294-.961.354v13.06c0,.036,0,.4.979.4,0,0,.937-.1.937-.4V37.224h5.851c.036,0,.36,0,.36-.781s-.324-.823-.36-.823H72.334V31.108H79c.042,0,.36,0,.36-.8S79.057,29.45,79,29.45Z" transform="translate(-28.108 -11.758)"/><path class="a" d="M92.819,35.942a12.466,12.466,0,0,0-2.4-.156c-3.46,0-3.526,2.529-3.526,2.529v7.113c0,.06.042.36.919.36s.937-.3.937-.36V38.315s0-1.051,1.982-1.051a11.414,11.414,0,0,1,2.049.132h0c.036,0,.342,0,.342-.7S92.861,35.96,92.819,35.942Z" transform="translate(-34.692 -14.285)"/><path class="a" d="M102.2,35.657a4.451,4.451,0,0,0-4.65,4.554v1.009a4.663,4.663,0,0,0,9.323,0V40.21a4.463,4.463,0,0,0-4.674-4.554ZM99.4,40.018a2.805,2.805,0,1,1,5.611,0v1.394a2.805,2.805,0,1,1-5.611,0Z" transform="translate(-38.946 -14.234)"/><path class="a" d="M120.192,35.73c-4.061,0-4.536.39-4.572.433h0v9.245c0,.06.042.36.919.36s.937-.3.937-.36V37.214h2.739a2.115,2.115,0,0,1,2.241,2.139v6.055c0,.06.042.36.919.36s.937-.3.937-.36V39.352A3.76,3.76,0,0,0,120.192,35.73Z" transform="translate(-46.163 -14.266)"/><path class="a" d="M136.827,42.509h-.967a.925.925,0,0,1-1.033-.9V35.637h1.946c.036,0,.354,0,.354-.739s-.318-.745-.354-.745h-1.946V31.816c0-.1-.12-.276-.919-.276s-.919.174-.919.276v2.355h-1.694c-.036,0-.354,0-.354.745s.318.739.354.739h1.694v6.164s.036,2.175,2.872,2.175h.967c.054,0,.3-.03.3-.739S136.881,42.509,136.827,42.509Z" transform="translate(-52.28 -12.593)"/><path class="a" d="M72.154,17.739a1.508,1.508,0,0,0-1.58,1.676v.469a1.508,1.508,0,0,0,1.586,1.67c.853,0,1.442-.475,1.442-1.153v-.1s0-.084-.21-.084-.24.084-.24.084v.084c0,.457-.427.745-1,.745a1.033,1.033,0,0,1-1.093-1.2v-.6a1.039,1.039,0,0,1,1.087-1.2c.6,0,1,.306,1,.733v.084s0,.078.234.078.216-.078.216-.078v-.1C73.6,18.219,72.995,17.739,72.154,17.739Z" transform="translate(-28.174 -7.081)"/><path class="a" d="M81.31,17.78c-.222,0-.258.084-.258.084l-1.5,3.652s0,.066.258.066.276-.066.276-.066l.336-.925h1.736l.372.925s0,.066.27.066.24-.066.24-.066l-1.478-3.652S81.52,17.78,81.31,17.78Zm-.721,2.4.721-1.8.709,1.8Z" transform="translate(-31.761 -7.099)"/><path class="a" d="M93.434,17.772c-.246,0-.27.066-.27.066l-1.34,3.07-1.352-3.082s0-.066-.276-.066-.276.066-.276.066v3.634s0,.078.222.078.21-.078.21-.078V18.5l1.262,2.956s.03.072.21.072.2-.072.2-.072l1.262-3v3s0,.078.216.078.216-.078.216-.078V17.838S93.723,17.772,93.434,17.772Z" transform="translate(-35.902 -7.091)"/><path class="a" d="M102.978,17.752a4.7,4.7,0,0,0-1.418.114v3.6s0,.078.24.078.24-.078.24-.078V20.113h.937a1.009,1.009,0,0,0,1.117-.985v-.4a1.015,1.015,0,0,0-1.117-.973Zm.637,1.382a.6.6,0,0,1-.643.631h-.931V18.118h.931a.6.6,0,0,1,.655.631Z" transform="translate(-40.549 -7.083)"/><path class="a" d="M110.9,17.76c-.24,0-.24.078-.24.078v3.634s0,.078.246.078.234-.078.234-.078V17.838S111.141,17.76,110.9,17.76Z" transform="translate(-44.182 -7.091)"/><path class="a" d="M119.485,17.76c-.24,0-.24.078-.24.078v2.92l-1.994-2.938s-.036-.06-.24-.06-.24.078-.24.078v3.634s0,.078.246.078.234-.078.234-.078V18.541l1.994,2.968s.036.06.24.06.234-.078.234-.078V17.838S119.72,17.76,119.485,17.76Z" transform="translate(-46.622 -7.091)"/><path class="a" d="M128,17.78c-.216,0-.258.084-.258.084l-1.5,3.652s0,.066.258.066.276-.066.276-.066l.354-.913h1.736l.354.913s.03.066.27.066.246-.066.246-.066l-1.484-3.64S128.216,17.78,128,17.78Zm-.721,2.4.721-1.8.709,1.8Z" transform="translate(-50.403 -7.099)"/><path class="a" d="M137.858,19.5c-.6-.2-1.081-.342-1.081-.769s.348-.6.859-.6a.738.738,0,0,1,.823.739v.078s0,.084.228.084.228-.084.228-.084v-.1c0-.6-.354-1.1-1.3-1.1-.829,0-1.316.384-1.316,1s.6.877,1.171,1.069,1.033.372,1.033.793-.3.565-.865.565c-.673,0-.955-.294-.955-.745v-.09s0-.078-.228-.078-.222.078-.222.078v.108c0,.6.336,1.111,1.4,1.111.925,0,1.352-.421,1.352-.973S138.4,19.7,137.858,19.5Z" transform="translate(-54.392 -7.087)"/><path class="a" d="M41.127,10.924l.811-1.4,2.914,1.682-.8,1.4ZM35.3,7.56l.811-1.4,2.9,1.706-.811,1.4Z" transform="translate(-14.094 -2.459)"/><rect class="a" width="2.036" height="2.277" rx="0.55" transform="matrix(0.868, -0.497, 0.497, 0.868, 5.783, 26.619)"/><rect class="a" width="2.036" height="2.277" rx="0.55" transform="matrix(0.868, -0.497, 0.497, 0.868, 26.97, 14.494)"/><rect class="a" width="2.277" height="2.036" rx="0.55" transform="matrix(0.503, -0.864, 0.864, 0.503, 26.926, 27.648)"/><rect class="a" width="2.277" height="2.036" rx="0.55" transform="matrix(0.503, -0.865, 0.865, 0.503, 5.822, 15.371)"/><path class="a" d="M23.757,20.22A8.891,8.891,0,1,0,32.642,29.1,8.891,8.891,0,0,0,23.757,20.22Zm-.643,6.512a.126.126,0,0,1-.048.1l-3,2.175a.132.132,0,0,0,0,.2l3,2.175a.114.114,0,0,1,.048.1V33.07c0,.084-.078.138-.138.1L17.5,29.213a.132.132,0,0,1,0-.2l5.479-3.965c.06-.042.138,0,.138.1Zm6.9,2.481-5.461,3.959c-.06.042-.138,0-.138-.1V31.5a.126.126,0,0,1,.048-.1l3-2.175a.126.126,0,0,0,0-.2l-3-2.187a.108.108,0,0,1-.048-.1v-1.6c0-.084.078-.138.138-.1l5.485,3.965a.132.132,0,0,1-.024.2Z" transform="translate(-5.933 -8.073)"/><circle class="a" cx="2.235" cy="2.235" r="2.235" transform="translate(15.589 37.606)"/><circle class="a" cx="2.235" cy="2.235" r="2.235" transform="translate(31.178 28.205)"/><circle class="a" cx="2.235" cy="2.235" r="2.235" transform="translate(0 28.205)"/><circle class="a" cx="2.235" cy="2.235" r="2.235" transform="translate(15.589)"/><circle class="a" cx="2.235" cy="2.235" r="2.235" transform="translate(0 9.402)"/><circle class="a" cx="2.235" cy="2.235" r="2.235" transform="translate(31.178 9.402)"/><rect class="a" width="2.277" height="2.036" rx="0.55" transform="translate(16.682 32.23)"/><rect class="a" width="2.277" height="2.036" rx="0.55" transform="translate(16.682 7.81)"/><path class="a" d="M16.881,6.17l.787,1.4L14.754,9.252,13.967,7.87ZM11.06,9.534l.811,1.406-2.92,1.682L8.14,11.216Z" transform="translate(-3.25 -2.463)"/><path class="a" d="M44.027,53.13l.8,1.4-2.914,1.682-.8-1.4Zm-5.833,3.364.811,1.4-2.914,1.682-.811-1.4Z" transform="translate(-14.086 -21.213)"/><path class="a" d="M13.967,57.834l.811-1.4,2.89,1.706-.811,1.406ZM8.14,54.47l.8-1.4,2.92,1.682-.8,1.424Z" transform="translate(-3.25 -21.189)"/><path class="a" d="M3.986,36.712H2.37V33.348H3.986Zm0-6.728H2.37V26.62H3.986Z" transform="translate(-0.946 -10.628)"/><path class="a" d="M55.914,36.712H54.28V33.348h1.634Zm0-6.728H54.28V26.62h1.634Z" transform="translate(-21.672 -10.628)"/></g></svg>