<svg xmlns="http://www.w3.org/2000/svg" xmlns:xlink="http://www.w3.org/1999/xlink" width="184" height="48.946" viewBox="0 0 184 48.946"><defs><style>.a{fill:#662d91;}.b{fill:#fbb040;}.c{fill:url(#a);}.d{fill:url(#b);}.e{fill:url(#c);}.f{fill:url(#d);}.g{fill:url(#e);}.h{fill:url(#f);}.i{fill:url(#g);}.j{fill:url(#h);}.k{fill:url(#i);}.l{fill:#333;}</style><linearGradient id="a" x1="0.115" y1="0.019" x2="0.913" y2="1.015" gradientUnits="objectBoundingBox"><stop offset="0" stop-color="#662d91"/><stop offset="1" stop-color="#fbb040"/></linearGradient><linearGradient id="b" x1="1.117" y1="0.096" x2="-0.928" y2="1.29" gradientUnits="objectBoundingBox"><stop offset="0" stop-color="#ffd385"/><stop offset="0.3" stop-color="#fbb040"/></linearGradient><linearGradient id="c" x1="-0.426" y1="-0.046" x2="2.387" y2="1.485" gradientUnits="objectBoundingBox"><stop offset="0.05" stop-color="#8247bf"/><stop offset="0.3" stop-color="#662d91"/></linearGradient><linearGradient id="d" x1="-0.282" y1="0.504" x2="12.14" y2="0.447" xlink:href="#a"/><linearGradient id="e" x1="-7.15" y1="0.509" x2="42.011" y2="0.451" xlink:href="#a"/><linearGradient id="f" x1="-2.599" y1="0.514" x2="9.676" y2="0.455" xlink:href="#a"/><linearGradient id="g" x1="-3.699" y1="0.522" x2="7.685" y2="0.465" xlink:href="#a"/><linearGradient id="h" x1="-5.532" y1="0.528" x2="6.742" y2="0.469" xlink:href="#a"/><linearGradient id="i" x1="-8.157" y1="0.535" x2="6.067" y2="0.477" xlink:href="#a"/></defs><g transform="translate(0 -0.036)"><g transform="translate(0 0.036)"><path class="a" d="M39.489,41.31A20.5,20.5,0,0,1,26.327,22.161h0A20.5,20.5,0,0,1,39.489,3.027,20.414,20.414,0,0,0,32.154,1.67H8.62A8.618,8.618,0,0,0,0,10.29V34.047a8.62,8.62,0,0,0,8.62,8.62H9.737A13.237,13.237,0,0,0,21.955,50.3a20.153,20.153,0,0,1-4.234-7.637H32.156a20.415,20.415,0,0,0,7.333-1.357Z" transform="translate(0 -1.358)"/><path class="b" d="M206.85,209.26Z" transform="translate(-167.359 -169.316)"/><path class="b" d="M237.8,1.67H214.265a20.428,20.428,0,0,0-7.335,1.357v.013a20.5,20.5,0,0,1,13.131,19.12h0a20.5,20.5,0,0,1-13.129,19.127l0,.014a20.428,20.428,0,0,0,7.335,1.357h14.443a20,20,0,0,1-4.236,7.637,13.281,13.281,0,0,0,12.219-7.637h1.123a8.621,8.621,0,0,0,8.62-8.618V10.288A8.62,8.62,0,0,0,237.8,1.67Z" transform="translate(-167.424 -1.358)"/><path class="c" d="M151.062,8.793V8.78h-.032v.013A20.5,20.5,0,0,0,137.9,27.913h0a20.5,20.5,0,0,0,13.129,19.128v.013h.032v-.013a20.5,20.5,0,0,0,13.131-19.128h0a20.5,20.5,0,0,0-13.131-19.12Z" transform="translate(-111.573 -7.111)"/><path class="d" d="M258.505,12H237.042a18.328,18.328,0,0,0-2.348.153,22.752,22.752,0,0,1,9.492,18.366h0a22.771,22.771,0,0,1-9.866,18.65,18.683,18.683,0,0,0,2.732.2h1.6v-.031h20.508a7.854,7.854,0,0,0,7.2-7.828V19.862A7.858,7.858,0,0,0,258.505,12Z" transform="translate(-189.585 -9.716)"/><path class="e" d="M33.577,30.519h0a22.737,22.737,0,0,1,9.485-18.372A18.677,18.677,0,0,0,40.724,12H19.258A7.858,7.858,0,0,0,11.4,19.862V41.523a7.856,7.856,0,0,0,7.2,7.827H39.117v.031h1.608a18.658,18.658,0,0,0,2.73-.2A22.753,22.753,0,0,1,33.577,30.519Z" transform="translate(-9.224 -9.716)"/><path class="f" d="M529.565,202.935a5.437,5.437,0,0,1,1.4-3.853,4.766,4.766,0,0,1,3.664-1.5,5.743,5.743,0,0,1,1.405.164,4.122,4.122,0,0,1,1.081.414,3.487,3.487,0,0,1,.747.573,2.331,2.331,0,0,1,.449.617,1.338,1.338,0,0,1,.137.556,1.065,1.065,0,0,1-.071.382.936.936,0,0,1-.191.3,1.883,1.883,0,0,1-.25.225,1.116,1.116,0,0,1-.273.157c-.092.032-.176.065-.256.092a.538.538,0,0,1-.191.04.29.29,0,0,1-.078-.011,2.623,2.623,0,0,0-1.018-1.029,2.808,2.808,0,0,0-1.409-.368,2.673,2.673,0,0,0-2.073.892,3.75,3.75,0,0,0,.011,4.664,2.673,2.673,0,0,0,2.077.909,2.835,2.835,0,0,0,1.527-.41,2.291,2.291,0,0,0,.943-1.145.744.744,0,0,1,.155,0,.876.876,0,0,1,.332.1,3.542,3.542,0,0,1,.393.212,1.042,1.042,0,0,1,.33.359,1.019,1.019,0,0,1,.137.523,1.45,1.45,0,0,1-.145.594,2.481,2.481,0,0,1-.464.659,3.646,3.646,0,0,1-.764.609,4.217,4.217,0,0,1-1.123.447,5.782,5.782,0,0,1-1.453.176,5.088,5.088,0,0,1-2.631-.676,4.583,4.583,0,0,1-1.774-1.894A5.978,5.978,0,0,1,529.565,202.935Z" transform="translate(-428.463 -159.865)"/><path class="g" d="M601.25,207.7v-8.282q0-1.061.966-1.063h.307c.664,0,.995.355.995,1.063V207.7c0,.708-.33,1.061-.995,1.061h-.307Q601.252,208.757,601.25,207.7Z" transform="translate(-486.463 -160.489)"/><path class="h" d="M639.991,207.67v-7.69a1.319,1.319,0,0,1,.334-.955,1.145,1.145,0,0,1,.869-.349h2.518a5.473,5.473,0,0,1,3.931,1.357,4.921,4.921,0,0,1,1.43,3.742,4.983,4.983,0,0,1-1.462,3.79,5.532,5.532,0,0,1-3.973,1.394h-2.392a1.209,1.209,0,0,1-.893-.382A1.257,1.257,0,0,1,639.991,207.67Zm2.268-.714h1.376a2.9,2.9,0,0,0,3.167-3.165,3.072,3.072,0,0,0-.836-2.291,3.13,3.13,0,0,0-2.3-.823h-1.405Z" transform="translate(-517.806 -160.752)"/><path class="i" d="M706.128,207.938l3.391-9.072a.823.823,0,0,1,.424-.523,2.342,2.342,0,0,1,1.052-.176,2.256,2.256,0,0,1,1.033.172.871.871,0,0,1,.418.527l3.467,9.057a.076.076,0,0,1,0,.038.382.382,0,0,1-.136.233,1.527,1.527,0,0,1-.475.315,1.474,1.474,0,0,1-.624.143q-.9,0-1.3-1.109l-.6-1.623h-3.627l-.6,1.653q-.367,1.077-1.243,1.079a1.5,1.5,0,0,1-.838-.271c-.235-.157-.351-.288-.351-.4A.127.127,0,0,1,706.128,207.938Zm3.465-3.765h2.734l-1.363-3.732Z" transform="translate(-571.311 -160.337)"/><path class="j" d="M779.561,207.67v-7.69a1.319,1.319,0,0,1,.334-.955,1.145,1.145,0,0,1,.869-.349h2.518a5.474,5.474,0,0,1,3.931,1.357,4.922,4.922,0,0,1,1.43,3.742,4.983,4.983,0,0,1-1.462,3.79,5.533,5.533,0,0,1-3.973,1.394h-2.384a1.207,1.207,0,0,1-.893-.382A1.257,1.257,0,0,1,779.561,207.67Zm2.268-.714H783.2a2.9,2.9,0,0,0,3.169-3.165,3.072,3.072,0,0,0-.836-2.291,3.13,3.13,0,0,0-2.3-.823h-1.405Z" transform="translate(-630.729 -160.752)"/><path class="k" d="M851.249,207.678v-7.69a1.384,1.384,0,0,1,.309-.955,1.1,1.1,0,0,1,.865-.346h5.536a1.075,1.075,0,0,1,.779.256.971.971,0,0,1,.262.729v.078c0,.657-.346.985-1.04.985h-4.443v2.075h3.246q1.041,0,1.041.888v.059c0,.622-.347.932-1.041.932h-3.246v2.228h4.521c.7,0,1.041.309,1.041.93v.094a.924.924,0,0,1-1.041,1.025h-5.615a1.119,1.119,0,0,1-.865-.338,1.357,1.357,0,0,1-.309-.951Z" transform="translate(-688.731 -160.76)"/><path class="l" d="M854.224,32.836a4.6,4.6,0,0,1,4.126-2.1c1.359-.019,1.861.424,1.867,1.791.013,2.913,0,5.825,0,8.736V53.352c0,1.659-.487,2.1-2.152,2.012a4.473,4.473,0,0,1-4.378-3.257h0a10.194,10.194,0,0,1-10.407,3.068,9.246,9.246,0,0,1-6.98-7.312,15.471,15.471,0,0,1,2.331-13.07c3.6-5.012,9.317-5.195,14.256-2.709C853.311,32.294,853.71,32.544,854.224,32.836Zm-.9,7.577c.015-2.354-.132-2.417-2.638-3-.132-.031-.212-.048-.344-.069-3.557-.573-6.665.437-7.383,4.12a13.365,13.365,0,0,0-.116,3.818,3.773,3.773,0,0,0,2.65,3.286,5.18,5.18,0,0,0,6.837-2.827,17.884,17.884,0,0,0,.934-4.229C853.273,41.335,853.317,40.511,853.319,40.413Z" transform="translate(-676.222 -24.7)"/><path class="l" d="M587,42.99a12.524,12.524,0,1,1,12.568,12.5A12.523,12.523,0,0,1,587,42.99Zm18.187-.069a5.68,5.68,0,1,0-5.655,5.9,5.681,5.681,0,0,0,5.655-5.9Z" transform="translate(-474.933 -24.615)"/><path class="l" d="M722.511,12.69H720.2c-1.422-.013-1.772-.382-1.777-1.829V7.713c.011-1.207.43-1.621,1.659-1.651.71-.017,1.42-.017,2.131-.031h.176a31.806,31.806,0,0,1,.739-3.1A4.538,4.538,0,0,1,728.2.123a1.386,1.386,0,0,1,1.176,1.527c-.015,1.42,0,2.839,0,4.4h6.13c1.942,0,2.325.414,2.182,2.341-.191,2.465-1.934,4.057-4.733,4.231-1.146.069-2.373.011-3.568.011v.706c0,2.877-.011,5.756.011,8.633.015,1.781.544,2.327,2.342,2.234a28.739,28.739,0,0,0,3.7-.508c1.648-.3,2.327.128,2.648,1.774q.288,1.495.59,2.986a1.227,1.227,0,0,1-.88,1.6,17.476,17.476,0,0,1-8.715.55,7.9,7.9,0,0,1-6.363-7.255c-.258-3.095-.153-6.22-.208-9.332C722.505,13.613,722.511,13.215,722.511,12.69Z" transform="translate(-581.263 -0.036)"/><path class="l" d="M466.225,47.508c1-3.436,1.863-6.625,2.864-9.771a18.263,18.263,0,0,1,1.776-3.954,6.749,6.749,0,0,1,6.978-2.673c.882.242.79.865.544,1.527q-1.821,4.945-3.627,9.9-2.06,5.613-4.114,11.23c-.563,1.527-1.146,1.938-2.8,1.94-1.184,0-2.367-.019-3.551,0a2.217,2.217,0,0,1-2.339-1.573q-3.963-10.731-7.9-21.487c-.422-1.157-.1-1.552,1.134-1.587,4.112-.113,6.314,1.277,7.667,5.233,1.165,3.383,2.054,6.858,3.074,10.29C465.985,46.8,466.063,47.014,466.225,47.508Z" transform="translate(-367.225 -25.031)"/></g></g></svg>