<svg xmlns="http://www.w3.org/2000/svg" xmlns:xlink="http://www.w3.org/1999/xlink" viewBox="0 0 381.64 328.81"><defs><style>.cls-1{fill:#161616;}.cls-2{fill:#662d91;}.cls-3{fill:#fbb040;}.cls-4{fill:url(#Gradiente_sem_nome_5);}.cls-5{fill:url(#Gradiente_sem_nome_37);}.cls-6{fill:url(#Gradiente_sem_nome_46);}</style><linearGradient id="Gradiente_sem_nome_5" x1="150.85" y1="8.28" x2="233.46" y2="158.48" gradientUnits="userSpaceOnUse"><stop offset="0" stop-color="#662d91"/><stop offset="1" stop-color="#fbb040"/></linearGradient><linearGradient id="Gradiente_sem_nome_37" x1="352.42" y1="21.92" x2="94.27" y2="197.72" gradientUnits="userSpaceOnUse"><stop offset="0" stop-color="#ffd385"/><stop offset="0.3" stop-color="#fbb040"/></linearGradient><linearGradient id="Gradiente_sem_nome_46" x1="-10.03" y1="1.05" x2="345.26" y2="226.47" gradientUnits="userSpaceOnUse"><stop offset="0.05" stop-color="#8247bf"/><stop offset="0.3" stop-color="#662d91"/></linearGradient></defs><g id="Camada_2" data-name="Camada 2"><g id="Camada_1-2" data-name="Camada 1"><path class="cls-1" d="M358.11,239.56c3.95-6.07,9.56-8.14,16.18-8.24,5.33-.07,7.29,1.67,7.32,7,.05,11.42,0,22.84,0,34.25q0,23.7,0,47.39c0,6.5-1.9,8.25-8.43,7.89-8.39-.46-14.31-4.33-17.16-12.77h0c-10.75,11.86-25.78,15.95-40.8,12s-23.93-14-27.36-28.67c-4.28-18.22-2-35.76,9.13-51.23,14.13-19.65,36.53-20.37,55.89-10.62C354.53,237.43,356.1,238.42,358.11,239.56Zm-3.55,29.71c.07-9.23-.51-9.48-10.34-11.76-.52-.12-.83-.18-1.35-.26C328.94,255,316.75,259,313.93,273.4a52.76,52.76,0,0,0-.45,15c.6,6.29,4.37,10.64,10.38,12.88,10.93,4.06,22.43-.28,26.8-11.08,2.07-5.08,3.38-13.21,3.67-16.58C354.39,272.88,354.56,269.65,354.56,269.27Z"/><path class="cls-1" d="M99.62,279.7a49.1,49.1,0,0,1,98.19-.4c.27,26.95-21.83,49.28-48.91,49.41A49.14,49.14,0,0,1,99.62,279.7Zm71.3-.27c-.06-13-9.95-23.06-22.48-22.85s-22,10.14-22,23c0,13,9.67,23,22.33,23S171,292.53,170.92,279.43Z"/><path class="cls-1" d="M214,257.28c-3.31,0-6.19,0-9.07,0-5.57-.06-7-1.47-7-7.17,0-4.12,0-8.23,0-12.35.05-4.72,1.69-6.35,6.5-6.47,2.79-.07,5.57-.06,8.36-.11l.69,0c.92-4,1.57-8.3,2.89-12.15,2.71-7.85,11.81-12.76,19.91-11,3.15.68,4.64,2.77,4.61,6-.06,5.56,0,11.13,0,17.26h24c7.61,0,9.11,1.63,8.55,9.18C272.82,250.12,266,256.37,255,257c-4.47.28-9.3,0-14,0,0,0,0,2,0,2.77,0,11.28,0,22.56,0,33.85.05,7,2.13,9.12,9.18,8.75a111.88,111.88,0,0,0,14.53-2c6.45-1.18,9.12.51,10.38,7,.75,3.9,1.53,7.8,2.31,11.7.6,3.06-.44,5.42-3.45,6.26-11.22,3.15-22.62,4.79-34.16,2.15-14-3.2-23.73-13.75-25-28.46-1-12.13-.6-24.38-.82-36.58C214,260.89,214,259.34,214,257.28Z"/><path class="cls-1" d="M48.41,295.79c3.91-13.47,7.3-26,11.23-38.31a72.21,72.21,0,0,1,7-15.5c5.16-8.44,18-13.06,27.36-10.48,3.46.95,3.1,3.39,2.13,6q-7.14,19.39-14.25,38.79-8.07,22-16.13,44c-2.21,6-4.52,7.6-11,7.61-4.64,0-9.29-.08-13.92,0s-7.62-1.95-9.17-6.16Q16.11,279.66.69,237.5C-1,233,.28,231.42,5.14,231.29c16.12-.45,24.75,5,30.05,20.51,4.55,13.26,8.05,26.88,12,40.34C47.47,293,47.77,293.85,48.41,295.79Z"/><path class="cls-2" d="M190.79,156.19a80.78,80.78,0,0,1-51.87-75.42h0A80.78,80.78,0,0,1,190.79,5.35,80.42,80.42,0,0,0,161.88,0H69.15a34,34,0,0,0-34,34v93.62a34,34,0,0,0,34,34h4.42c8,15.61,22.34,29.56,48.12,30.13-9.25-11.06-14.11-20.79-16.69-30.13h56.88A80.42,80.42,0,0,0,190.79,156.19Z"/><path class="cls-3" d="M190.79,156.17Z"/><path class="cls-3" d="M312.49,0H219.75a80.62,80.62,0,0,0-28.9,5.35V5.4a80.79,80.79,0,0,1,51.74,75.37h0a80.78,80.78,0,0,1-51.74,75.37v.05a80.41,80.41,0,0,0,28.9,5.35h56.89c-2.58,9.34-7.44,19.07-16.69,30.13,25.78-.57,40.13-14.52,48.12-30.13h4.42a34,34,0,0,0,34-34V34A34,34,0,0,0,312.49,0Z"/><path class="cls-4" d="M190.78,5.4V5.35l-.06,0-.07,0V5.4a80.78,80.78,0,0,0-51.73,75.37h0a80.76,80.76,0,0,0,51.74,75.37v.05l.06,0,.06,0v-.05a80.76,80.76,0,0,0,51.74-75.37h0A80.77,80.77,0,0,0,190.78,5.4Z"/><path class="cls-5" d="M306.73,7.79H222.18a72.46,72.46,0,0,0-9.25.6C235.63,25,250.3,51.22,250.3,80.77h0c0,30.21-15.32,57-38.89,73.49a73.6,73.6,0,0,0,10.77.8h6.3V155h80.84a31,31,0,0,0,28.37-30.85V38.75A31,31,0,0,0,306.73,7.79Z"/><path class="cls-6" d="M131.14,80.77h0c0-29.55,14.67-55.79,37.37-72.38a72.3,72.3,0,0,0-9.24-.6H74.72a31,31,0,0,0-31,31V124.1A31,31,0,0,0,72.13,155H153v.11h6.3a73.36,73.36,0,0,0,10.76-.8C146.46,137.74,131.14,111,131.14,80.77Z"/></g></g></svg>