<svg xmlns="http://www.w3.org/2000/svg" width="24.35" height="25.052" viewBox="0 0 24.35 25.052"><defs><style>.a{fill:#fff;}</style></defs><g transform="translate(0.01 0.002)"><path class="a" d="M21.225,14.49c5.884,0,10.655-.8,10.655-1.778,0-.657-2.142-1.23-5.316-1.536-.295-1.366-.851-4.045-1.21-5.258-.476-1.577-2.189-.768-3.494-.078s-2.014-.278-3.38-.481a1.417,1.417,0,0,0-1.422.94l-.712,4.827c-3.43.3-5.775.9-5.775,1.586C10.57,13.694,15.341,14.49,21.225,14.49Z" transform="translate(-9.247 -5.01)"/><path class="a" d="M24.372,60.326a16.024,16.024,0,0,0,2.106-3.16c.345-1.113-4.292-1.786-4.292-1.786S21.876,57.695,18.738,59a2.226,2.226,0,0,1-1.566,0c-3.135-1.3-3.508-3.605-3.508-3.605s-4.573.657-4.229,1.775a16.024,16.024,0,0,0,2.106,3.16A5.513,5.513,0,0,0,5.78,65.553v.865H30.13v-.865A5.519,5.519,0,0,0,24.372,60.326Z" transform="translate(-5.79 -41.369)"/><path class="a" d="M37.087,42.022A8.9,8.9,0,0,1,35.051,42c-1.288-.453-3.881-.412-3.881.345a2.3,2.3,0,0,0,2.292,2.084,2.171,2.171,0,0,0,2.264-1.588h.025a.573.573,0,0,1,.709,0,2.182,2.182,0,0,0,2.262,1.586,2.3,2.3,0,0,0,2.292-2.084C41.018,41.577,38.356,41.546,37.087,42.022Z" transform="translate(-24.117 -31.499)"/></g></svg>