<svg xmlns="http://www.w3.org/2000/svg" width="43.96" height="43.98" viewBox="0 0 43.96 43.98"><defs><style>.help-box{fill:#662d91;}</style></defs><g transform="translate(0)"><g transform="translate(0 0)"><path class="help-box" d="M28.8,20.6A7.8,7.8,0,1,0,21,12.8,7.809,7.809,0,0,0,28.8,20.6Zm-4.244-3.047a4.248,4.248,0,0,1,8.487,0,6.343,6.343,0,0,1-8.487,0Zm2.825-6.88A1.418,1.418,0,1,1,28.8,12.09,1.419,1.419,0,0,1,27.381,10.672ZM28.8,6.418a6.369,6.369,0,0,1,5.431,9.715,5.7,5.7,0,0,0-3.291-3.62,2.837,2.837,0,1,0-4.28,0,5.694,5.694,0,0,0-3.291,3.62A6.368,6.368,0,0,1,28.8,6.418Z" transform="translate(-6.819 -2.164)"/><rect class="help-box" width="1.63" height="0.815" transform="translate(4.288 39.906)"/><rect class="help-box" width="1.63" height="1.63" transform="translate(4.288 42.35)"/><rect class="help-box" width="1.63" height="13.037" transform="translate(6.732 30.943)"/><rect class="help-box" width="1.63" height="1.63" transform="translate(9.992 36.646)"/><rect class="help-box" width="1.63" height="4.074" transform="translate(9.992 39.906)"/><rect class="help-box" width="1.63" height="1.63" transform="translate(14.066 21.165)"/><rect class="help-box" width="4.074" height="1.63" transform="translate(17.325 21.165)"/><rect class="help-box" width="7.333" height="0.815" transform="translate(14.066 24.424)"/><rect class="help-box" width="7.333" height="1.63" transform="translate(2.658 25.239)"/><rect class="help-box" width="7.333" height="1.63" transform="translate(2.658 28.498)"/><path class="help-box" d="M33.615,5.254V1H12.344V5.254H1V33.615H5.254v5.672H6.672V32.2H2.418V6.672h9.926V8.126c-.236-.021-.472-.035-.709-.035a7.8,7.8,0,0,0,0,15.6c.237,0,.473-.014.709-.035v5.708h2.836V32.2H10.926v4.254h1.418V33.615h2.836v.945a2.137,2.137,0,0,0,.426,1.276l1.559,2.081a.713.713,0,0,1,.142.425v2.362H15.89V44.96H30.07V40.705H28.652V38.342a.717.717,0,0,1,.142-.426l1.559-2.08a2.137,2.137,0,0,0,.426-1.276v-.945h2.836v2.836h1.418V32.2H30.779V29.361h2.836V23.653c.236.021.472.035.709.035a7.8,7.8,0,0,0,0-15.6c-.237,0-.473.014-.709.035V6.672h9.926V32.2H39.287v7.09h1.418V33.615H44.96V5.254Zm.709,9.926a1.42,1.42,0,0,1-.709-.192V12.537a1.417,1.417,0,1,1,.709,2.643ZM10.217,13.762a1.415,1.415,0,0,1,2.127-1.226v2.451a1.414,1.414,0,0,1-2.127-1.225Zm1.418-4.254a6.406,6.406,0,0,1,.709.043v1.477a2.8,2.8,0,0,0-.709-.1A2.839,2.839,0,0,0,8.8,13.762,2.81,2.81,0,0,0,9.5,15.6,5.694,5.694,0,0,0,6.2,19.223a6.368,6.368,0,0,1,5.43-9.715Zm0,12.762a6.349,6.349,0,0,1-4.244-1.629,4.217,4.217,0,0,1,4.953-3.978v5.565A6.583,6.583,0,0,1,11.635,22.271ZM28.652,43.542H17.308V42.124H28.652Zm.709-8.981a.717.717,0,0,1-.142.426l-1.559,2.08a2.138,2.138,0,0,0-.426,1.276v2.363H18.726V38.342a2.138,2.138,0,0,0-.426-1.276l-1.559-2.08a.713.713,0,0,1-.142-.425v-5.2h1.418v3.545h1.418V29.361h1.418v3.545h1.418V29.361h2.623a5.8,5.8,0,0,0-1.2,3.545h1.418a4.4,4.4,0,0,1,1.3-3.13l.831-.831V25.522l-1.895-1.895a.8.8,0,0,1,.562-1.357H26a.794.794,0,0,1,.5.174l2.6,2.08a.706.706,0,0,1,.267.554ZM32.2,27.943H30.779V25.079a2.117,2.117,0,0,0-.8-1.661l-2.6-2.081A2.226,2.226,0,0,0,26,20.853h-.1a2.213,2.213,0,0,0-1.565,3.778l1.479,1.479v1.834H13.762V2.418H32.2Zm1.418-5.715V16.663a4.308,4.308,0,0,1,.709-.065,4.256,4.256,0,0,1,4.244,4.044,6.287,6.287,0,0,1-4.953,1.586Zm.709-12.72a6.369,6.369,0,0,1,5.431,9.715,5.7,5.7,0,0,0-3.291-3.62,2.81,2.81,0,0,0-2.85-4.575V9.551A6.406,6.406,0,0,1,34.324,9.508Z" transform="translate(-1 -1)"/><rect class="help-box" width="0.815" height="0.815" transform="translate(38.51 39.906)"/><rect class="help-box" width="0.815" height="1.63" transform="translate(38.51 42.35)"/><rect class="help-box" width="1.63" height="13.037" transform="translate(35.251 30.943)"/><rect class="help-box" width="1.63" height="1.63" transform="translate(32.806 36.646)"/><rect class="help-box" width="1.63" height="4.074" transform="translate(32.806 39.906)"/><rect class="help-box" width="6.519" height="1.63" transform="translate(34.436 25.239)"/><rect class="help-box" width="6.519" height="1.63" transform="translate(34.436 28.498)"/></g></g></svg>
