<svg xmlns="http://www.w3.org/2000/svg" width="43.957" height="43.957" viewBox="0 0 43.957 43.957"><defs><style>.a{fill:#662d91;}</style></defs><g transform="translate(0)"><g transform="translate(0 0)"><rect class="a" width="2" transform="translate(15 3.957)"/><rect class="a" width="5" transform="translate(8 3.957)"/><rect class="a" width="5" height="1" transform="translate(10 39.957)"/><rect class="a" width="2" height="1" transform="translate(20 39.957)"/><rect class="a" width="1" height="1" transform="translate(4 39.957)"/><path class="a" d="M39.028,16.6a9.207,9.207,0,0,0-12.5-10.633V4.545A3.549,3.549,0,0,0,22.979,1H4.545A3.549,3.549,0,0,0,1,4.545V41.412a3.549,3.549,0,0,0,3.545,3.545H22.979a3.549,3.549,0,0,0,3.545-3.545v-7.8H41.412a2.13,2.13,0,0,0,2.127-2.127V26.523h1.418V16.6ZM30.068,6.672a7.8,7.8,0,1,1-7.8,7.8A7.808,7.808,0,0,1,30.068,6.672ZM36.7,20.852h2.581V22.27H34.958A9.27,9.27,0,0,0,36.7,20.852ZM25.179,22.27H20.852V20.852h2.581A9.27,9.27,0,0,0,25.179,22.27ZM2.418,4.545A2.13,2.13,0,0,1,4.545,2.418H22.979a2.13,2.13,0,0,1,2.127,2.127V6.672H2.418ZM25.105,41.412a2.13,2.13,0,0,1-2.127,2.127H4.545a2.13,2.13,0,0,1-2.127-2.127V39.285H25.105Zm0-3.545H2.418V8.09H23.433a9.253,9.253,0,0,0-1.119,1.418H3.836V36.449H23.688V33.613h1.418Zm-4-21.27H15.18v9.926H16.6v4.963a2.13,2.13,0,0,0,2.127,2.127H22.27v1.418H5.254V10.926H21.563a9.088,9.088,0,0,0-.454,5.672ZM42.121,31.486a.709.709,0,0,1-.709.709H18.725a.709.709,0,0,1-.709-.709V26.523H42.121Zm1.418-6.381H16.6v-7.09h4.965a9.212,9.212,0,0,0,.752,1.418H19.434v4.254H40.7V19.434H37.823a9.151,9.151,0,0,0,.752-1.418h4.965Z" transform="translate(-1 -1)"/><path class="a" d="M40.836,20.926a1.419,1.419,0,0,1-1.418-1.418H38a2.832,2.832,0,0,0,2.127,2.735v1.519h1.418V22.344h2.127V19.508a2.839,2.839,0,0,0-2.836-2.836,1.419,1.419,0,0,1-1.418-1.418V13.836h1.418a1.419,1.419,0,0,1,1.418,1.418h1.418a2.832,2.832,0,0,0-2.127-2.735V11H40.127v1.418H38v2.836a2.839,2.839,0,0,0,2.836,2.836,1.419,1.419,0,0,1,1.418,1.418v1.418Z" transform="translate(-11.768 -3.91)"/><path class="a" d="M11.836,31.836a1.419,1.419,0,0,1,1.418,1.418h1.418a2.832,2.832,0,0,0-2.127-2.735V29H11.127v1.418H9v2.836a2.839,2.839,0,0,0,2.836,2.836,1.419,1.419,0,0,1,1.418,1.418v1.418H11.836a1.419,1.419,0,0,1-1.418-1.418H9a2.832,2.832,0,0,0,2.127,2.735v1.519h1.418V40.344h2.127V37.508a2.839,2.839,0,0,0-2.836-2.836,1.419,1.419,0,0,1-1.418-1.418V31.836Z" transform="translate(-3.328 -9.148)"/><rect class="a" width="2" transform="translate(32 12.957)"/><rect class="a" width="1" transform="translate(24 12.957)"/><rect class="a" width="2" height="1" transform="translate(5 11.957)"/><rect class="a" width="11" height="1" transform="translate(8 11.957)"/><rect class="a" width="8" height="2" transform="translate(5 13.957)"/><rect class="a" width="8" height="2" transform="translate(5 16.957)"/><path class="a" d="M54.672,39H53.254v1.418H49v1.418h5.672Z" transform="translate(-14.969 -12.059)"/><rect class="a" width="1" height="2" transform="translate(31 28.957)"/></g></g></svg>