<svg xmlns="http://www.w3.org/2000/svg" viewBox="0 0 22.187 12.88">
  <defs/>
  <path d="M22.02 5.974C21.82 5.73 17.094 0 11.093 0S.364 5.725.166 5.974a.739.739 0 000 .933c.2.244 4.926 5.974 10.927 5.974s10.729-5.73 10.927-5.974a.739.739 0 000-.933zm-10.927 5.421a4.955 4.955 0 114.955-4.955 4.955 4.955 0 01-4.955 4.955zM1.728 6.44a19.554 19.554 0 013.744-3.125 6.415 6.415 0 000 6.25A19.554 19.554 0 011.728 6.44zm14.986 3.125a6.415 6.415 0 000-6.25 19.554 19.554 0 013.744 3.125 19.553 19.553 0 01-3.744 3.125z" class="a"/>
  <circle cx="2.804" cy="2.804" r="2.804" class="a" transform="translate(8.289 3.636)"/>
</svg>
