<svg xmlns="http://www.w3.org/2000/svg" width="17.633" height="16.858" viewBox="0 0 17.633 16.858"><defs><style>.filter{fill:#fff}</style></defs><g transform="translate(-23.921 -23.5)"><g transform="translate(23.921 23.5)"><path class="filter" d="M34.5,40.358a.9.9,0,0,1-.4-.1L30.523,38.47a.94.94,0,0,1-.506-.809V33.413l-5.934-8.5a.945.945,0,0,1-.067-.944.908.908,0,0,1,.809-.472H40.638a.98.98,0,0,1,.809.472.876.876,0,0,1-.067.944l-5.968,8.5v6.035a.935.935,0,0,1-.438.775A1.1,1.1,0,0,1,34.5,40.358Zm-2.664-3.271,1.753.877V33.143a.909.909,0,0,1,.169-.506l5.125-7.317H26.544l5.125,7.317a.909.909,0,0,1,.169.506Z" transform="translate(-23.921 -23.5)"/></g></g></svg>
