<svg xmlns="http://www.w3.org/2000/svg" width="21.924" height="22.18" viewBox="0 0 21.924 22.18"><defs><style>.a{fill:#6e6e6e;}</style></defs><g transform="translate(-6.4 -7.5)"><g transform="translate(6.4 7.5)"><path class="a" d="M16,26.709a9.516,9.516,0,0,0,5.686-1.87L26.147,29.3a1.286,1.286,0,0,0,.9.384,1.243,1.243,0,0,0,.9-.384,1.268,1.268,0,0,0,0-1.818l-4.405-4.431A9.594,9.594,0,1,0,16,26.709Zm0-16.648A7.043,7.043,0,1,1,8.961,17.1,7.056,7.056,0,0,1,16,10.061Z" transform="translate(-6.4 -7.5)"/><path class="a" d="M30.168,30.537h6.147a.768.768,0,0,0,0-1.537H30.168a.768.768,0,1,0,0,1.537Z" transform="translate(-23.509 -23.493)"/><path class="a" d="M30.168,43.537h6.147a.768.768,0,0,0,0-1.537H30.168a.768.768,0,1,0,0,1.537Z" transform="translate(-23.509 -33.164)"/><path class="a" d="M30.168,56.537h3.073a.768.768,0,0,0,0-1.537H30.168a.768.768,0,1,0,0,1.537Z" transform="translate(-23.509 -42.834)"/></g></g></svg>