<svg xmlns="http://www.w3.org/2000/svg" width="15" height="15" viewBox="0 0 15 15"><defs><style>.a{fill:#6e6e6e;}</style></defs><g transform="translate(0 0)"><path class="a" d="M7.507,0A7.5,7.5,0,1,1,0,7.481,7.5,7.5,0,0,1,7.507,0ZM6.934,5.7H5.6a1.117,1.117,0,0,0-.288.04.279.279,0,0,0-.219.233.267.267,0,0,0,.15.309,1.362,1.362,0,0,0,.458.123c.417.019.585.2.522.632-.117.8-.275,1.6-.41,2.4-.092.54-.168,1.082-.257,1.622a1.438,1.438,0,0,0,1.1,1.5,6.4,6.4,0,0,0,.963.062,2.507,2.507,0,0,0,1.823-.789.693.693,0,0,0,.188-.29.355.355,0,0,0-.063-.276.272.272,0,0,0-.236-.026c-.123.041-.233.125-.353.177a2.175,2.175,0,0,1-.438.15.428.428,0,0,1-.528-.381,1.445,1.445,0,0,1-.014-.423c.051-.348.123-.693.186-1.038Q8.436,8.313,8.7,6.9a2.025,2.025,0,0,0,.075-.783A.45.45,0,0,0,8.286,5.7ZM7.75,2.364a1.362,1.362,0,1,0,1.3,1.391,1.362,1.362,0,0,0-1.3-1.391Z" transform="translate(0 0)"/></g></svg>