<svg xmlns="http://www.w3.org/2000/svg" width="43.96" height="43.96" viewBox="0 0 43.96 43.96"><defs><style>.a{fill:#662d91;}</style></defs><g transform="translate(0)"><g transform="translate(0 0)"><rect class="a" width="7.333" height="0.815" transform="translate(13.598 39.906)"/><path class="a" d="M42.376,99.9a2.2,2.2,0,0,1-2.2,2.2H26.905c.415-1.471.9-4.261-.463-6.54l3.391-3.968a2.8,2.8,0,0,0,.694-1.847v-.08a2.8,2.8,0,0,0-4.787-1.985l-2.414,2.4V67.663a2.2,2.2,0,0,1,2.2-2.2H28l.53,1.06a.733.733,0,0,0,.655.4h7.327a.733.733,0,0,0,.655-.4l.53-1.06h2.478a2.2,2.2,0,0,1,2.2,2.2v3.663h1.465V67.663A3.667,3.667,0,0,0,40.178,64H25.525a3.667,3.667,0,0,0-3.663,3.663V83.525l-4.416,5.52A6.618,6.618,0,0,0,16,93.164v10.4h1.465v-10.4a5.148,5.148,0,0,1,1.124-3.2l3.272-4.09v5.667l-1.983,1.983,1.036,1.036,2.2-2.2h0l3.663-3.642a1.34,1.34,0,0,1,2.287.947v.08a1.345,1.345,0,0,1-.337.888l-3.758,4.4a.733.733,0,0,0-.029.916c1.916,2.554.29,6.566.274,6.6a.733.733,0,0,0,.676,1.015h14.29A3.667,3.667,0,0,0,43.841,99.9V90.376H42.376Z" transform="translate(-16 -59.604)"/><rect class="a" width="0.815" height="8.148" transform="translate(26.635 17.091)"/><path class="a" d="M112,152.795a8.805,8.805,0,0,0,2.01,5.6l1.13-.933A7.327,7.327,0,0,1,125,146.8l.844-1.2A8.793,8.793,0,0,0,112,152.795Z" transform="translate(-103.208 -132.28)"/><path class="a" d="M196.365,305.459a7.28,7.28,0,0,1-4.213,1.332,7.406,7.406,0,0,1-1.334-.121l-.263,1.441a8.857,8.857,0,0,0,1.6.145,8.736,8.736,0,0,0,5.057-1.6Z" transform="translate(-174.569 -278.95)"/><path class="a" d="M178.931,208a2.931,2.931,0,1,0,2.931,2.931A2.931,2.931,0,0,0,178.931,208Zm0,4.4a1.465,1.465,0,1,1,1.465-1.465A1.465,1.465,0,0,1,178.931,212.4Z" transform="translate(-161.347 -190.416)"/><path class="a" d="M370.931,85.861A2.931,2.931,0,1,0,368,82.931,2.931,2.931,0,0,0,370.931,85.861Zm0-4.4a1.465,1.465,0,1,1-1.465,1.465A1.465,1.465,0,0,1,370.931,81.465Z" transform="translate(-335.763 -74.139)"/><path class="a" d="M167.385,86.222a5.861,5.861,0,1,0-4-10.144l-8.654-7.212a5.841,5.841,0,0,0,.309-5.773l7.912-5.274a5.846,5.846,0,1,0-.815-1.218l-7.912,5.274a5.861,5.861,0,1,0-.433,8.116L162.45,77.2a5.857,5.857,0,0,0,4.934,9.019Zm0-36.633a4.4,4.4,0,1,1-4.4,4.4A4.4,4.4,0,0,1,167.385,49.589Zm0,26.376a4.4,4.4,0,1,1-4.4,4.4,4.4,4.4,0,0,1,4.4-4.4ZM149.8,70.1a4.4,4.4,0,1,1,4.4-4.4A4.4,4.4,0,0,1,149.8,70.1Z" transform="translate(-132.217 -45.194)"/><path class="a" d="M370.931,373.861A2.931,2.931,0,1,0,368,370.931,2.931,2.931,0,0,0,370.931,373.861Zm0-4.4a1.465,1.465,0,1,1-1.465,1.465A1.465,1.465,0,0,1,370.931,369.465Z" transform="translate(-335.763 -335.763)"/><path class="a" d="M353.841,177.606a7.331,7.331,0,0,1-8.209-.147l-.844,1.2a8.8,8.8,0,0,0,9.853.177Z" transform="translate(-314.678 -162.672)"/><path class="a" d="M449.114,40.652a7.259,7.259,0,0,1-2.3,5.329l1.006,1.065a8.711,8.711,0,0,0,2.758-6.394,8.809,8.809,0,0,0-3.735-7.193l-.844,1.2A7.342,7.342,0,0,1,449.114,40.652Z" transform="translate(-406.62 -31.86)"/><path class="a" d="M340.144,17.467a7.294,7.294,0,0,1,2.664.5l.533-1.365a8.8,8.8,0,0,0-9.231,1.8l1.006,1.065A7.3,7.3,0,0,1,340.144,17.467Z" transform="translate(-304.977 -16.002)"/><path class="a" d="M349.845,453.57a7.279,7.279,0,0,1-4.213-1.332l-.844,1.2a8.794,8.794,0,0,0,11.839-1.6l-1.13-.933A7.308,7.308,0,0,1,349.845,453.57Z" transform="translate(-314.678 -411.077)"/><path class="a" d="M455.912,330.183l-1.006,1.065a7.332,7.332,0,0,1,1.5,8.658l1.3.667A8.8,8.8,0,0,0,455.912,330.183Z" transform="translate(-414.71 -301.41)"/><path class="a" d="M347.631,305.422l.8,1.227a7.332,7.332,0,0,1,7.992,0l.8-1.227A8.8,8.8,0,0,0,347.631,305.422Z" transform="translate(-317.26 -277.625)"/></g></g></svg>