<svg xmlns="http://www.w3.org/2000/svg" viewBox="0 0 512.303 512.303">
  <path fill="#4caf50" d="M256.014.134C114.629.164.038 114.804.068 256.189c.01 48.957 14.059 96.884 40.479 138.1L.718 497.628c-2.121 5.496.615 11.671 6.111 13.792 1.229.474 2.534.717 3.851.715 1.222.006 2.435-.203 3.584-.619l106.667-38.08c120.012 74.745 277.894 38.048 352.638-81.965s38.048-277.894-81.965-352.638C350.922 13.495 303.943.087 256.014.134z"/>
  <path fill="#fafafa" d="M378.062 299.889s-26.133-12.8-42.496-21.333c-18.517-9.536-40.277 8.32-50.517 18.475-15.937-6.122-30.493-15.362-42.816-27.179-11.819-12.321-21.059-26.877-27.179-42.816 10.155-10.261 27.968-32 18.475-50.517-8.427-16.384-21.333-42.496-21.333-42.517-1.811-3.594-5.49-5.863-9.515-5.867h-21.333c-31.068 5.366-53.657 32.474-53.333 64 0 33.493 40.085 97.835 67.115 124.885s91.371 67.115 124.885 67.115c31.526.324 58.634-22.266 64-53.333v-21.333c.003-4.068-2.305-7.783-5.953-9.58z"/>
</svg>
