<svg xmlns="http://www.w3.org/2000/svg" width="15" height="15"><path fill="#6e6e6e" d="M7.5 0A7.5 7.5 0 110 7.48 7.5 7.5 0 017.5 0zm-.57 5.7H5.6a1.12 1.12 0 00-.29.04.28.28 0 00-.22.23.27.27 0 00.15.31 1.36 1.36 0 00.46.12c.42.02.59.2.52.64-.11.8-.27 1.6-.4 2.4-.1.54-.18 1.08-.26 1.62a1.44 1.44 0 001.1 1.5 6.4 6.4 0 00.96.06 2.5 2.5 0 001.82-.79.7.7 0 00.19-.29.35.35 0 00-.06-.27.27.27 0 00-.24-.03c-.12.04-.23.13-.35.18a2.17 2.17 0 01-.44.15.43.43 0 01-.53-.38 1.45 1.45 0 01-.01-.43c.05-.34.12-.69.18-1.03q.26-1.42.52-2.83a2.02 2.02 0 00.07-.78.45.45 0 00-.48-.42zm.82-3.34a1.36 1.36 0 101.3 1.4 1.36 1.36 0 00-1.3-1.4z"/></svg>