<svg xmlns="http://www.w3.org/2000/svg" width="122" height="42.076"><defs><style>.a{fill:#fff;}</style></defs><g><path d="M90.9 25.08h-4.96c-.03 0-.35 0-.35.74s.3.75.34.75h4.96c.03 0 .35 0 .35-.75s-.32-.74-.35-.74zM96.63 21.38a4.37 4.37 0 0 0-4.57 4.56v1a4.4 4.4 0 0 0 4.74 4.56c2.32 0 4.24-1.4 4.3-3.14a.14.14 0 0 0-.05-.12q-.16-.18-.8-.18c-.75 0-.8.22-.8.3 0 .82-1.07 1.7-2.65 1.7a2.64 2.64 0 0 1-2.9-2.8v-.27h6.42c.75 0 .8-.3.8-.35v-.72a4.38 4.38 0 0 0-4.5-4.55zm2.83 4.33H93.9a2.67 2.67 0 0 1 2.82-2.83 2.76 2.76 0 0 1 2.74 2.84zM107.35 21.42c-4.07 0-4.53.4-4.58.43v9.25c0 .06.05.35.92.35s.93-.3.93-.35v-8.2h2.74a2.12 2.12 0 0 1 2.25 2.15v6.05c0 .06.05.35.92.35s.94-.3.94-.35v-6.06a3.8 3.8 0 0 0-4.13-3.62zM121.1 16.97c-.87 0-.92.3-.92.36v4.2c-.66-.03-1.56-.05-2.75-.05a3.74 3.74 0 0 0-4.1 3.66v2.67a3.75 3.75 0 0 0 4.1 3.67c4.05 0 4.53-.4 4.57-.43V17.32c.02-.05-.05-.35-.9-.35zm-3.67 13a2.15 2.15 0 0 1-2.26-2.18V25.1a2.14 2.14 0 0 1 2.26-2.17h2.75v7.02zM50.9 17.7h-7.65c-.9 0-.96.3-.96.35V31.1c0 .04 0 .4.97.4 0 0 .94-.1.94-.4v-5.63h5.86c.03 0 .36 0 .36-.78s-.33-.84-.36-.84h-5.83v-4.5h6.66c.03 0 .35 0 .35-.8s-.3-.87-.36-.87zM58.13 21.66a12.47 12.47 0 0 0-2.4-.16c-3.46 0-3.53 2.53-3.53 2.53v7.1c0 .07.04.37.92.37s.94-.3.94-.36v-7.1s0-1.06 1.98-1.06a11.4 11.4 0 0 1 2.05.13c.02 0 .33 0 .33-.7s-.26-.72-.3-.74zM63.25 21.42a4.45 4.45 0 0 0-4.65 4.56v1a4.66 4.66 0 0 0 9.33 0v-1a4.46 4.46 0 0 0-4.68-4.56zm-2.8 4.36a2.8 2.8 0 1 1 5.62 0v1.4a2.8 2.8 0 1 1-5.62 0zM74.03 21.46c-4.06 0-4.54.4-4.57.44v9.24c0 .06.04.36.92.36s.93-.3.93-.36v-8.2h2.75a2.12 2.12 0 0 1 2.24 2.15v6.04c0 .06.03.36.9.36s.95-.3.95-.36V25.1a3.76 3.76 0 0 0-4.12-3.64zM84.55 29.92h-.97a.93.93 0 0 1-1.03-.9v-5.98h1.94c.03 0 .35 0 .35-.73s-.32-.74-.36-.74h-1.95v-2.34c0-.1-.12-.27-.92-.27s-.92.17-.92.27v2.36h-1.68c-.04 0-.36 0-.36.74s.32.74.36.74h1.7v6.17s.03 2.17 2.86 2.17h.97c.05 0 .3-.03.3-.74s-.25-.74-.3-.74zM43.98 10.66a1.5 1.5 0 0 0-1.58 1.67v.47a1.5 1.5 0 0 0 1.6 1.67c.84 0 1.43-.47 1.43-1.15v-.1s0-.08-.2-.08-.25.08-.25.08v.08c0 .46-.43.75-1 .75a1.03 1.03 0 0 1-1.1-1.2v-.6a1.04 1.04 0 0 1 1.1-1.2c.6 0 1 .3 1 .73v.1s0 .06.23.06.22-.07.22-.07v-.1c0-.63-.6-1.1-1.44-1.1zM49.55 10.68c-.22 0-.26.1-.26.1l-1.5 3.64s0 .06.25.06.28-.06.28-.06l.33-.93h1.74l.37.92s0 .06.27.06.24-.06.24-.06l-1.48-3.65s-.04-.1-.25-.1zm-.72 2.4l.72-1.8.7 1.8zM57.53 10.68c-.24 0-.27.07-.27.07l-1.34 3.07-1.35-3.1s0-.05-.28-.05-.28.06-.28.06v3.64s0 .08.22.08.2-.08.2-.08V11.4l1.27 2.97s.04.07.22.07.2-.07.2-.07l1.26-3v3s0 .07.22.07.22-.07.22-.07v-3.62s0-.07-.3-.07zM62.43 10.67a4.7 4.7 0 0 0-1.42.1v3.6s0 .1.25.1.24-.1.24-.1v-1.34h.93a1 1 0 0 0 1.1-1v-.4a1 1 0 0 0-1.1-.96zm.64 1.38a.6.6 0 0 1-.65.63h-.93v-1.65h.92a.6.6 0 0 1 .66.64zM66.72 10.67c-.24 0-.24.08-.24.08v3.63s0 .08.24.08.24-.08.24-.08v-3.63s0-.08-.24-.08zM72.86 10.67c-.24 0-.24.08-.24.08v2.92l-2-2.94s-.03-.06-.23-.06-.25.08-.25.08v3.63s0 .08.25.08.23-.08.23-.08v-2.93l2 2.97s.03.06.23.06.24-.08.24-.08v-3.65s0-.08-.24-.08zM77.6 10.68c-.22 0-.26.1-.26.1l-1.5 3.64s0 .06.26.06.27-.06.27-.06l.36-.92h1.73l.36.92s.03.06.27.06.23-.06.23-.06l-1.48-3.64s-.04-.1-.25-.1zm-.72 2.4l.72-1.8.7 1.8zM83.47 12.4c-.6-.2-1.08-.33-1.08-.76s.33-.6.84-.6a.74.74 0 0 1 .83.74v.08s0 .1.22.1.22-.1.22-.1v-.1c0-.6-.35-1.1-1.3-1.1-.83 0-1.3.4-1.3 1s.6.88 1.16 1.07 1.03.37 1.03.8-.3.56-.85.56c-.68 0-.96-.3-.96-.76v-.1s0-.07-.24-.07-.22.08-.22.08v.1c0 .6.34 1.12 1.4 1.12.93 0 1.35-.42 1.35-.97s-.6-.9-1.13-1.1zM27.03 8.46l.8-1.4 2.93 1.7-.8 1.4zM21.2 5.1l.82-1.4 2.9 1.7-.8 1.4z" class="a"/><rect width="2.036" height="2.277" class="a" rx=".55" transform="matrix(.868 -.497 .497 .868 5.783 26.619)"/><rect width="2.036" height="2.277" class="a" rx=".55" transform="matrix(.868 -.497 .497 .868 26.97 14.494)"/><rect width="2.277" height="2.036" class="a" rx=".55" transform="matrix(.503 -.864 .864 .503 26.926 27.648)"/><rect width="2.277" height="2.036" class="a" rx=".55" transform="matrix(.503 -.865 .865 .503 5.822 15.371)"/><path d="M17.82 12.15a8.9 8.9 0 1 0 8.9 8.88 8.9 8.9 0 0 0-8.9-8.88zm-.64 6.5a.13.13 0 0 1-.05.1l-3 2.18a.13.13 0 0 0 0 .2l3 2.18a.1.1 0 0 1 .05.1V25c0 .08-.08.13-.14.1l-5.47-3.96a.13.13 0 0 1 0-.2l5.48-3.96c.06-.05.13 0 .13.1zm6.9 2.5l-5.46 3.95c-.06.04-.14 0-.14-.1v-1.57a.13.13 0 0 1 .05-.1l3-2.18a.13.13 0 0 0 0-.2l-3-2.2a.1.1 0 0 1-.05-.1v-1.6c0-.07.08-.12.14-.1l5.5 3.98a.13.13 0 0 1-.04.2z" class="a"/><circle cx="2.235" cy="2.235" r="2.235" class="a" transform="translate(15.589 37.606)"/><circle cx="2.235" cy="2.235" r="2.235" class="a" transform="translate(31.178 28.205)"/><circle cx="2.235" cy="2.235" r="2.235" class="a" transform="translate(0 28.205)"/><circle cx="2.235" cy="2.235" r="2.235" class="a" transform="translate(15.589)"/><circle cx="2.235" cy="2.235" r="2.235" class="a" transform="translate(0 9.402)"/><circle cx="2.235" cy="2.235" r="2.235" class="a" transform="translate(31.178 9.402)"/><rect width="2.277" height="2.036" class="a" rx=".55" transform="translate(16.682 32.23)"/><rect width="2.277" height="2.036" class="a" rx=".55" transform="translate(16.682 7.81)"/><path d="M13.63 3.7l.8 1.4-2.93 1.7-.78-1.4zM7.8 7.08l.82 1.4-2.92 1.7-.8-1.42zM29.94 31.92l.8 1.4-2.9 1.68-.8-1.4zm-5.83 3.36l.82 1.4-2.9 1.68-.83-1.4zM10.72 36.65l.8-1.4 2.9 1.7-.8 1.4zM4.9 33.28l.8-1.4 2.9 1.68L7.8 35zM3.04 26.08H1.42v-3.36h1.62zm0-6.72H1.42V16h1.62zM34.24 26.08H32.6v-3.36h1.64zm0-6.72H32.6V16h1.64z" class="a"/></g></svg>