<svg xmlns="http://www.w3.org/2000/svg" width="184" height="48.946" xmlns:xlink="http://www.w3.org/1999/xlink"><defs><style>.a{fill:#662d91;}.b{fill:#fbb040;}.c{fill:url(#a);}.d{fill:url(#b);}.e{fill:url(#c);}.f{fill:url(#d);}.g{fill:url(#e);}.h{fill:url(#f);}.i{fill:url(#g);}.j{fill:url(#h);}.k{fill:url(#i);}.l{fill:#333;}</style><linearGradient id="a" x1=".115" x2=".913" y1=".019" y2="1.015" gradientUnits="objectBoundingBox"><stop offset="0" stop-color="#662d91"/><stop offset="1" stop-color="#fbb040"/></linearGradient><linearGradient id="b" x1="1.117" x2="-.928" y1=".096" y2="1.29" gradientUnits="objectBoundingBox"><stop offset="0" stop-color="#ffd385"/><stop offset=".3" stop-color="#fbb040"/></linearGradient><linearGradient id="c" x1="-.426" x2="2.387" y1="-.046" y2="1.485" gradientUnits="objectBoundingBox"><stop offset=".05" stop-color="#8247bf"/><stop offset=".3" stop-color="#662d91"/></linearGradient><linearGradient id="d" x1="-.282" x2="12.14" y1=".504" y2=".447" xlink:href="#a"/><linearGradient id="e" x1="-7.15" x2="42.011" y1=".509" y2=".451" xlink:href="#a"/><linearGradient id="f" x1="-2.599" x2="9.676" y1=".514" y2=".455" xlink:href="#a"/><linearGradient id="g" x1="-3.699" x2="7.685" y1=".522" y2=".465" xlink:href="#a"/><linearGradient id="h" x1="-5.532" x2="6.742" y1=".528" y2=".469" xlink:href="#a"/><linearGradient id="i" x1="-8.157" x2="6.067" y1=".535" y2=".477" xlink:href="#a"/></defs><path d="M39.5 39.95A20.5 20.5 0 0 1 26.32 20.8 20.5 20.5 0 0 1 39.5 1.67 20.4 20.4 0 0 0 32.14.3H8.62A8.62 8.62 0 0 0 0 8.94V32.7a8.62 8.62 0 0 0 8.62 8.6h1.12a13.24 13.24 0 0 0 12.2 7.64 20.15 20.15 0 0 1-4.22-7.63h14.44A20.4 20.4 0 0 0 39.5 39.95z" class="a"/><path d="M39.5 39.94zM70.38.3H46.84a20.43 20.43 0 0 0-7.33 1.37A20.5 20.5 0 0 1 52.65 20.8 20.5 20.5 0 0 1 39.5 39.93a20.43 20.43 0 0 0 7.34 1.37H61.3a20 20 0 0 1-4.25 7.64 13.28 13.28 0 0 0 12.22-7.64h1.12a8.62 8.62 0 0 0 8.6-8.62V8.93A8.62 8.62 0 0 0 70.4.3z" class="b"/><path d="M39.5 1.68h-.04A20.5 20.5 0 0 0 26.33 20.8a20.5 20.5 0 0 0 13.13 19.13h.03A20.5 20.5 0 0 0 52.6 20.8 20.5 20.5 0 0 0 39.5 1.68z" class="c"/><path d="M68.92 2.28H47.46a18.33 18.33 0 0 0-2.35.16 22.75 22.75 0 0 1 9.5 18.36 22.77 22.77 0 0 1-9.87 18.65 18.68 18.68 0 0 0 2.74.2h1.6v-.03h20.5a7.85 7.85 0 0 0 7.2-7.83V10.14a7.86 7.86 0 0 0-7.85-7.87z" class="d"/><path d="M24.35 20.8a22.74 22.74 0 0 1 9.5-18.37 18.68 18.68 0 0 0-2.35-.15H10.03a7.86 7.86 0 0 0-7.85 7.87V31.8a7.86 7.86 0 0 0 7.2 7.83h20.5v.03h1.62a18.66 18.66 0 0 0 2.73-.2 22.75 22.75 0 0 1-9.88-18.66z" class="e"/><path d="M101.1 43.07a5.44 5.44 0 0 1 1.4-3.85 4.77 4.77 0 0 1 3.67-1.5 5.74 5.74 0 0 1 1.4.16 4.12 4.12 0 0 1 1.08.4 3.5 3.5 0 0 1 .75.6 2.33 2.33 0 0 1 .45.6 1.34 1.34 0 0 1 .14.56 1.06 1.06 0 0 1-.1.38.94.94 0 0 1-.18.3 1.88 1.88 0 0 1-.25.23 1.12 1.12 0 0 1-.27.15c-.1.04-.18.07-.26.1a.54.54 0 0 1-.2.04.3.3 0 0 1-.06 0 2.62 2.62 0 0 0-1.02-1.04 2.8 2.8 0 0 0-1.4-.37 2.67 2.67 0 0 0-2.08.9 3.75 3.75 0 0 0 0 4.65 2.67 2.67 0 0 0 2.08.9 2.83 2.83 0 0 0 1.53-.4 2.3 2.3 0 0 0 .93-1.14.74.74 0 0 1 .16 0 .88.88 0 0 1 .32.1 3.54 3.54 0 0 1 .4.2 1.04 1.04 0 0 1 .32.37 1.02 1.02 0 0 1 .14.53 1.45 1.45 0 0 1-.14.6 2.48 2.48 0 0 1-.47.66 3.65 3.65 0 0 1-.76.6 4.22 4.22 0 0 1-1.12.44 5.78 5.78 0 0 1-1.45.18 5.1 5.1 0 0 1-2.63-.68 4.58 4.58 0 0 1-1.77-1.9 5.98 5.98 0 0 1-.63-2.77z" class="f"/><path d="M114.8 47.2v-8.27q0-1.06.95-1.06h.3c.67 0 1 .35 1 1.06v8.28c0 .72-.33 1.07-1 1.07h-.3q-.96 0-.96-1.06z" class="g"/><path d="M122.18 46.92v-7.7a1.32 1.32 0 0 1 .34-.95 1.15 1.15 0 0 1 .87-.35h2.5a5.47 5.47 0 0 1 3.94 1.36 4.92 4.92 0 0 1 1.43 3.74 4.98 4.98 0 0 1-1.47 3.8 5.53 5.53 0 0 1-3.97 1.4h-2.4a1.2 1.2 0 0 1-.88-.4 1.26 1.26 0 0 1-.36-.9zm2.27-.72h1.38a2.9 2.9 0 0 0 3.17-3.16 3.07 3.07 0 0 0-.84-2.3 3.13 3.13 0 0 0-2.3-.82h-1.4z" class="h"/><path d="M134.82 47.6l3.4-9.07a.82.82 0 0 1 .4-.52 2.34 2.34 0 0 1 1.06-.17 2.26 2.26 0 0 1 1.04.17.87.87 0 0 1 .4.53l3.48 9.06a.08.08 0 0 1 0 .02.38.38 0 0 1-.13.24 1.53 1.53 0 0 1-.48.3 1.47 1.47 0 0 1-.63.15q-.9 0-1.3-1.1l-.6-1.62h-3.63l-.6 1.66q-.37 1.07-1.24 1.07a1.5 1.5 0 0 1-.84-.26c-.24-.15-.35-.28-.35-.4a.13.13 0 0 1 .02-.04zm3.46-3.76h2.74l-1.37-3.74z" class="i"/><path d="M148.83 46.92v-7.7a1.32 1.32 0 0 1 .34-.95 1.15 1.15 0 0 1 .87-.35h2.5a5.47 5.47 0 0 1 3.94 1.36 4.92 4.92 0 0 1 1.43 3.74 4.98 4.98 0 0 1-1.45 3.8 5.53 5.53 0 0 1-3.97 1.4h-2.38a1.2 1.2 0 0 1-.9-.4 1.26 1.26 0 0 1-.37-.9zm2.27-.72h1.37a2.9 2.9 0 0 0 3.17-3.16 3.07 3.07 0 0 0-.84-2.3 3.13 3.13 0 0 0-2.3-.82h-1.4z" class="j"/><path d="M162.52 46.92v-7.7a1.38 1.38 0 0 1 .3-.95 1.1 1.1 0 0 1 .87-.34h5.53a1.07 1.07 0 0 1 .78.25.97.97 0 0 1 .27.73v.1c0 .65-.35.98-1.04.98h-4.44v2.07h3.23q1.04 0 1.04.9V43c0 .62-.34.93-1.04.93h-3.24v2.23h4.5c.7 0 1.05.3 1.05.93v.08a.92.92 0 0 1-1.04 1.03h-5.6a1.12 1.12 0 0 1-.87-.33 1.36 1.36 0 0 1-.3-.95z" class="k"/><path d="M178 8.14a4.6 4.6 0 0 1 4.13-2.1c1.36-.02 1.86.42 1.87 1.8 0 2.9 0 5.8 0 8.72v12.1c0 1.65-.5 2.1-2.16 2a4.47 4.47 0 0 1-4.37-3.25 10.2 10.2 0 0 1-10.4 3.08 9.25 9.25 0 0 1-7-7.32 15.47 15.47 0 0 1 2.34-13.07c3.6-5.02 9.33-5.2 14.27-2.72.42.2.82.46 1.33.76zm-.9 7.57c.02-2.34-.13-2.4-2.64-3-.13-.02-.2-.04-.34-.06-3.56-.57-6.66.44-7.38 4.12a13.37 13.37 0 0 0-.12 3.82 3.77 3.77 0 0 0 2.65 3.3 5.18 5.18 0 0 0 6.84-2.84 17.88 17.88 0 0 0 .94-4.23c0-.16.06-1 .06-1.1zM112.07 18.38a12.52 12.52 0 1 1 12.57 12.5 12.52 12.52 0 0 1-12.57-12.5zm18.18-.07a5.68 5.68 0 1 0-5.65 5.9 5.68 5.68 0 0 0 5.65-5.9zM141.25 12.65h-2.3c-1.43 0-1.78-.38-1.8-1.83V7.68c.02-1.2.44-1.62 1.67-1.65.7-.02 1.42-.02 2.13-.03h.18a31.8 31.8 0 0 1 .74-3.1 4.54 4.54 0 0 1 5.07-2.8 1.4 1.4 0 0 1 1.17 1.5c0 1.43 0 2.85 0 4.4h6.14c1.94 0 2.33.43 2.18 2.36-.2 2.46-1.93 4.05-4.73 4.23-1.15.06-2.38 0-3.58 0v.7c0 2.88 0 5.76 0 8.64.03 1.78.56 2.32 2.36 2.23a28.74 28.74 0 0 0 3.7-.5c1.64-.3 2.32.12 2.64 1.77q.3 1.5.6 2.98a1.23 1.23 0 0 1-.9 1.6 17.48 17.48 0 0 1-8.7.55 7.9 7.9 0 0 1-6.36-7.25c-.26-3.1-.16-6.22-.2-9.33-.02-.42 0-.82 0-1.35zM99 22.48c1-3.44 1.86-6.63 2.86-9.77a18.26 18.26 0 0 1 1.78-3.95 6.75 6.75 0 0 1 6.98-2.67c.88.24.8.86.54 1.53q-1.82 4.95-3.63 9.9-2.06 5.62-4.1 11.24c-.57 1.52-1.16 1.93-2.8 1.94-1.2 0-2.38-.02-3.56 0a2.22 2.22 0 0 1-2.34-1.58q-3.96-10.73-7.9-21.48c-.42-1.16-.1-1.56 1.13-1.6 4.12-.1 6.32 1.3 7.67 5.24 1.17 3.4 2.06 6.86 3.08 10.3.06.2.14.42.3.92z" class="l"/></svg>