<svg id="Componente_2_1" data-name="Componente 2 – 1" xmlns="http://www.w3.org/2000/svg" width="38" height="38" viewBox="0 0 38 38">
  <rect id="Retângulo_355" data-name="Retângulo 355" width="38" height="38" rx="10" fill="#c9c9c9"/>
  <path id="Caminho_450" data-name="Caminho 450" d="M24.124,11.932a.118.118,0,0,0-.1-.082l-7.044-1.024-3.15-6.382a.125.125,0,0,0-.215,0l-3.15,6.382L3.426,11.851a.12.12,0,0,0-.067.2l5.1,4.967-1.2,7.015a.12.12,0,0,0,.174.127l6.3-3.313,6.3,3.313a.119.119,0,0,0,.056.013.116.116,0,0,0,.07-.023.12.12,0,0,0,.048-.117L19,17.023l5.1-4.967A.12.12,0,0,0,24.124,11.932Z" transform="translate(5.677 4.616)" fill="#fff"/>
</svg>
